G04 #@! TF.FileFunction,Copper,L2,Bot,Signal*
%FSLAX46Y46*%
G04 Gerber Fmt 4.6, Leading zero omitted, Abs format (unit mm)*
G04 Created by KiCad (PCBNEW 4.0.2-4+6225~38~ubuntu14.04.1-stable) date Tue 29 Mar 2016 09:48:56 BST*
%MOMM*%
G01*
G04 APERTURE LIST*
%ADD10C,0.100000*%
%ADD11R,1.727200X1.727200*%
%ADD12O,1.727200X1.727200*%
%ADD13R,2.000000X1.727200*%
%ADD14O,2.000000X1.750000*%
%ADD15R,1.750000X2.000000*%
%ADD16O,1.750000X2.000000*%
%ADD17R,2.235200X2.235200*%
%ADD18C,2.000000*%
%ADD19C,1.500000*%
%ADD20C,0.600000*%
%ADD21C,0.500000*%
%ADD22C,0.250000*%
%ADD23C,0.254000*%
G04 APERTURE END LIST*
D10*
D11*
X76000000Y-178000000D03*
D12*
X73460000Y-178000000D03*
D13*
X40000000Y-156000000D03*
D14*
X40000000Y-158540000D03*
X40000000Y-161080000D03*
X40000000Y-163620000D03*
X40000000Y-166160000D03*
X40000000Y-168700000D03*
D11*
X57000000Y-175000000D03*
D12*
X57000000Y-177540000D03*
X54460000Y-175000000D03*
X54460000Y-177540000D03*
X51920000Y-175000000D03*
X51920000Y-177540000D03*
D15*
X77000000Y-133000000D03*
D16*
X74460000Y-133000000D03*
X71920000Y-133000000D03*
D17*
X84250000Y-151000000D03*
D18*
X55000000Y-136500000D03*
X55000000Y-139500000D03*
D19*
X63150000Y-162900000D03*
X66250000Y-163750000D03*
X48250000Y-178500000D03*
X72250000Y-145750000D03*
X75250000Y-161500000D03*
X83000000Y-155000000D03*
X87000000Y-146000000D03*
X51000000Y-164000000D03*
D20*
X48250000Y-160000000D03*
X48250000Y-164000000D03*
D19*
X57000000Y-162000000D03*
X60000000Y-150750000D03*
X74750000Y-157000000D03*
X90500000Y-144000000D03*
X103250000Y-148750000D03*
D20*
X55000000Y-143750000D03*
X60250000Y-143750000D03*
X64750000Y-160000000D03*
X73250000Y-167500000D03*
X78750000Y-148500000D03*
X63500000Y-160000000D03*
X67500000Y-160000000D03*
X80750000Y-160000000D03*
X70000000Y-171250000D03*
X85000000Y-163250000D03*
X90750000Y-164000000D03*
X68250000Y-171250000D03*
X66000000Y-170250000D03*
X66750000Y-168500000D03*
X83750000Y-158250000D03*
X67750000Y-168500000D03*
X57000000Y-169500000D03*
X65250000Y-169500000D03*
X69250000Y-168250000D03*
X83000000Y-157500000D03*
X73000000Y-161250000D03*
X73000000Y-164750000D03*
X56250000Y-156750000D03*
X52500000Y-156750000D03*
X60500000Y-157750000D03*
X82000000Y-168750000D03*
D21*
X50000000Y-172500000D02*
X43000000Y-165500000D01*
X41330000Y-161080000D02*
X40000000Y-161080000D01*
X43000000Y-162750000D02*
X41330000Y-161080000D01*
X43000000Y-165500000D02*
X43000000Y-162750000D01*
X57000000Y-178250000D02*
X55750000Y-179500000D01*
X55750000Y-179500000D02*
X51500000Y-179500000D01*
X51500000Y-179500000D02*
X50000000Y-178000000D01*
X50000000Y-178000000D02*
X50000000Y-172500000D01*
X50000000Y-172500000D02*
X50000000Y-172450000D01*
X57000000Y-177540000D02*
X57000000Y-178250000D01*
D22*
X65500000Y-163000000D02*
X63500000Y-163000000D01*
X63150000Y-162900000D02*
X63250000Y-163000000D01*
X63250000Y-163000000D02*
X63500000Y-163000000D01*
X66250000Y-163750000D02*
X65500000Y-163000000D01*
X48250000Y-164000000D02*
X48250000Y-160000000D01*
X57000000Y-162000000D02*
X51250000Y-162000000D01*
X51250000Y-162000000D02*
X50000000Y-160750000D01*
X50000000Y-160750000D02*
X50000000Y-157000000D01*
X50000000Y-157000000D02*
X56250000Y-150750000D01*
X56250000Y-150750000D02*
X60000000Y-150750000D01*
X81500000Y-144000000D02*
X90500000Y-144000000D01*
X79750000Y-145750000D02*
X81500000Y-144000000D01*
X79750000Y-152000000D02*
X79750000Y-145750000D01*
X74750000Y-157000000D02*
X79750000Y-152000000D01*
X90500000Y-144000000D02*
X99000000Y-144000000D01*
X99000000Y-144000000D02*
X103250000Y-148250000D01*
X103250000Y-148250000D02*
X103250000Y-148750000D01*
X60250000Y-143750000D02*
X55000000Y-143750000D01*
X66250000Y-160250000D02*
X73250000Y-167250000D01*
X73250000Y-167250000D02*
X73250000Y-167500000D01*
X66000000Y-160000000D02*
X66250000Y-160250000D01*
X64750000Y-160000000D02*
X66000000Y-160000000D01*
X78750000Y-148500000D02*
X78750000Y-151000000D01*
X78750000Y-151000000D02*
X70500000Y-159250000D01*
X64250000Y-159250000D02*
X70500000Y-159250000D01*
X63500000Y-160000000D02*
X64250000Y-159250000D01*
X67500000Y-160000000D02*
X80750000Y-160000000D01*
X83250000Y-171250000D02*
X70000000Y-171250000D01*
X85000000Y-169500000D02*
X83250000Y-171250000D01*
X85000000Y-163250000D02*
X85000000Y-169500000D01*
X68250000Y-171250000D02*
X69750000Y-172500000D01*
X69750000Y-172500000D02*
X84750000Y-172500000D01*
X84750000Y-172500000D02*
X90750000Y-166500000D01*
X90750000Y-166500000D02*
X90750000Y-164000000D01*
X54460000Y-177540000D02*
X54460000Y-177290000D01*
X54460000Y-177290000D02*
X55750000Y-176000000D01*
X58000000Y-170250000D02*
X66000000Y-170250000D01*
X55750000Y-172500000D02*
X58000000Y-170250000D01*
X55750000Y-176000000D02*
X55750000Y-172500000D01*
X66000000Y-170250000D02*
X66750000Y-169500000D01*
X66750000Y-169500000D02*
X66750000Y-168500000D01*
X67750000Y-169250000D02*
X68750000Y-170250000D01*
X68750000Y-170250000D02*
X82750000Y-170250000D01*
X82750000Y-170250000D02*
X83750000Y-169250000D01*
X83750000Y-169250000D02*
X83750000Y-158250000D01*
X67750000Y-169250000D02*
X67750000Y-168500000D01*
X57000000Y-175000000D02*
X57000000Y-173250000D01*
X57000000Y-173250000D02*
X59250000Y-171000000D01*
X59250000Y-171000000D02*
X66500000Y-171000000D01*
X66500000Y-171000000D02*
X67750000Y-169750000D01*
X67750000Y-169750000D02*
X67750000Y-168500000D01*
X65250000Y-169500000D02*
X57000000Y-169500000D01*
X83000000Y-168750000D02*
X83000000Y-157500000D01*
X82250000Y-169500000D02*
X83000000Y-168750000D01*
X70500000Y-169500000D02*
X82250000Y-169500000D01*
X70500000Y-169500000D02*
X69250000Y-168250000D01*
X73000000Y-164750000D02*
X73000000Y-161250000D01*
X52500000Y-156750000D02*
X56250000Y-156750000D01*
X73500000Y-168750000D02*
X82000000Y-168750000D01*
X58250000Y-158500000D02*
X59000000Y-157750000D01*
X59000000Y-157750000D02*
X60500000Y-157750000D01*
X66250000Y-161500000D02*
X73500000Y-168750000D01*
X59400000Y-161500000D02*
X66250000Y-161500000D01*
X58250000Y-160350000D02*
X59400000Y-161500000D01*
X58250000Y-159750000D02*
X58250000Y-160350000D01*
X58250000Y-159750000D02*
X58250000Y-158500000D01*
D23*
G36*
X42115000Y-163116579D02*
X42115000Y-165499995D01*
X42114999Y-165500000D01*
X42151831Y-165685162D01*
X42182367Y-165838675D01*
X42265170Y-165962599D01*
X42374210Y-166125790D01*
X49115000Y-172866579D01*
X49115000Y-177999995D01*
X49114999Y-178000000D01*
X49143414Y-178142848D01*
X49182367Y-178338675D01*
X49321086Y-178546284D01*
X49374210Y-178625790D01*
X50874208Y-180125787D01*
X50874210Y-180125790D01*
X51119969Y-180290000D01*
X44069931Y-180290000D01*
X42067273Y-179891646D01*
X41826340Y-179771180D01*
X40269241Y-178730760D01*
X39228819Y-177173658D01*
X39108353Y-176932725D01*
X38723911Y-175000000D01*
X40190000Y-175000000D01*
X40480019Y-176458024D01*
X41305923Y-177694077D01*
X42541976Y-178519981D01*
X44000000Y-178810000D01*
X45458024Y-178519981D01*
X46694077Y-177694077D01*
X47519981Y-176458024D01*
X47810000Y-175000000D01*
X47519981Y-173541976D01*
X46694077Y-172305923D01*
X45458024Y-171480019D01*
X44000000Y-171190000D01*
X42541976Y-171480019D01*
X41305923Y-172305923D01*
X40480019Y-173541976D01*
X40190000Y-175000000D01*
X38723911Y-175000000D01*
X38710000Y-174930069D01*
X38710000Y-169670097D01*
X38775237Y-169767731D01*
X39265116Y-170095058D01*
X39842968Y-170210000D01*
X40157032Y-170210000D01*
X40734884Y-170095058D01*
X41224763Y-169767731D01*
X41552090Y-169277852D01*
X41667032Y-168700000D01*
X41552090Y-168122148D01*
X41224763Y-167632269D01*
X40922046Y-167430000D01*
X41224763Y-167227731D01*
X41552090Y-166737852D01*
X41667032Y-166160000D01*
X41552090Y-165582148D01*
X41224763Y-165092269D01*
X40922046Y-164890000D01*
X41224763Y-164687731D01*
X41552090Y-164197852D01*
X41667032Y-163620000D01*
X41552090Y-163042148D01*
X41224763Y-162552269D01*
X40922046Y-162350000D01*
X41177639Y-162179218D01*
X42115000Y-163116579D01*
X42115000Y-163116579D01*
G37*
X42115000Y-163116579D02*
X42115000Y-165499995D01*
X42114999Y-165500000D01*
X42151831Y-165685162D01*
X42182367Y-165838675D01*
X42265170Y-165962599D01*
X42374210Y-166125790D01*
X49115000Y-172866579D01*
X49115000Y-177999995D01*
X49114999Y-178000000D01*
X49143414Y-178142848D01*
X49182367Y-178338675D01*
X49321086Y-178546284D01*
X49374210Y-178625790D01*
X50874208Y-180125787D01*
X50874210Y-180125790D01*
X51119969Y-180290000D01*
X44069931Y-180290000D01*
X42067273Y-179891646D01*
X41826340Y-179771180D01*
X40269241Y-178730760D01*
X39228819Y-177173658D01*
X39108353Y-176932725D01*
X38723911Y-175000000D01*
X40190000Y-175000000D01*
X40480019Y-176458024D01*
X41305923Y-177694077D01*
X42541976Y-178519981D01*
X44000000Y-178810000D01*
X45458024Y-178519981D01*
X46694077Y-177694077D01*
X47519981Y-176458024D01*
X47810000Y-175000000D01*
X47519981Y-173541976D01*
X46694077Y-172305923D01*
X45458024Y-171480019D01*
X44000000Y-171190000D01*
X42541976Y-171480019D01*
X41305923Y-172305923D01*
X40480019Y-173541976D01*
X40190000Y-175000000D01*
X38723911Y-175000000D01*
X38710000Y-174930069D01*
X38710000Y-169670097D01*
X38775237Y-169767731D01*
X39265116Y-170095058D01*
X39842968Y-170210000D01*
X40157032Y-170210000D01*
X40734884Y-170095058D01*
X41224763Y-169767731D01*
X41552090Y-169277852D01*
X41667032Y-168700000D01*
X41552090Y-168122148D01*
X41224763Y-167632269D01*
X40922046Y-167430000D01*
X41224763Y-167227731D01*
X41552090Y-166737852D01*
X41667032Y-166160000D01*
X41552090Y-165582148D01*
X41224763Y-165092269D01*
X40922046Y-164890000D01*
X41224763Y-164687731D01*
X41552090Y-164197852D01*
X41667032Y-163620000D01*
X41552090Y-163042148D01*
X41224763Y-162552269D01*
X40922046Y-162350000D01*
X41177639Y-162179218D01*
X42115000Y-163116579D01*
G36*
X105932725Y-130108353D02*
X106173658Y-130228819D01*
X107730760Y-131269241D01*
X108771180Y-132826340D01*
X108891646Y-133067273D01*
X109290000Y-135069931D01*
X109290000Y-174930069D01*
X108891646Y-176932727D01*
X108771180Y-177173660D01*
X107730760Y-178730759D01*
X106019072Y-179874472D01*
X103930069Y-180290000D01*
X56130031Y-180290000D01*
X56375790Y-180125790D01*
X56375791Y-180125789D01*
X57541289Y-178960290D01*
X57573489Y-178953885D01*
X58059670Y-178629029D01*
X58384526Y-178142848D01*
X58412940Y-178000000D01*
X71932041Y-178000000D01*
X72046115Y-178573489D01*
X72370971Y-179059670D01*
X72857152Y-179384526D01*
X73430641Y-179498600D01*
X73489359Y-179498600D01*
X74062848Y-179384526D01*
X74534356Y-179069474D01*
X74598073Y-179223299D01*
X74776702Y-179401927D01*
X75010091Y-179498600D01*
X75714250Y-179498600D01*
X75873000Y-179339850D01*
X75873000Y-178127000D01*
X76127000Y-178127000D01*
X76127000Y-179339850D01*
X76285750Y-179498600D01*
X76989909Y-179498600D01*
X77223298Y-179401927D01*
X77401927Y-179223299D01*
X77498600Y-178989910D01*
X77498600Y-178285750D01*
X77339850Y-178127000D01*
X76127000Y-178127000D01*
X75873000Y-178127000D01*
X75853000Y-178127000D01*
X75853000Y-177873000D01*
X75873000Y-177873000D01*
X75873000Y-176660150D01*
X76127000Y-176660150D01*
X76127000Y-177873000D01*
X77339850Y-177873000D01*
X77498600Y-177714250D01*
X77498600Y-177010090D01*
X77401927Y-176776701D01*
X77223298Y-176598073D01*
X76989909Y-176501400D01*
X76285750Y-176501400D01*
X76127000Y-176660150D01*
X75873000Y-176660150D01*
X75714250Y-176501400D01*
X75010091Y-176501400D01*
X74776702Y-176598073D01*
X74598073Y-176776701D01*
X74534356Y-176930526D01*
X74062848Y-176615474D01*
X73489359Y-176501400D01*
X73430641Y-176501400D01*
X72857152Y-176615474D01*
X72370971Y-176940330D01*
X72046115Y-177426511D01*
X71932041Y-178000000D01*
X58412940Y-178000000D01*
X58498600Y-177569359D01*
X58498600Y-177510641D01*
X58384526Y-176937152D01*
X58073426Y-176471558D01*
X58098917Y-176466762D01*
X58315041Y-176327690D01*
X58460031Y-176115490D01*
X58511040Y-175863600D01*
X58511040Y-175000000D01*
X100190000Y-175000000D01*
X100480019Y-176458024D01*
X101305923Y-177694077D01*
X102541976Y-178519981D01*
X104000000Y-178810000D01*
X105458024Y-178519981D01*
X106694077Y-177694077D01*
X107519981Y-176458024D01*
X107810000Y-175000000D01*
X107519981Y-173541976D01*
X106694077Y-172305923D01*
X105458024Y-171480019D01*
X104000000Y-171190000D01*
X102541976Y-171480019D01*
X101305923Y-172305923D01*
X100480019Y-173541976D01*
X100190000Y-175000000D01*
X58511040Y-175000000D01*
X58511040Y-174136400D01*
X58466762Y-173901083D01*
X58327690Y-173684959D01*
X58115490Y-173539969D01*
X57863600Y-173488960D01*
X57835842Y-173488960D01*
X59564802Y-171760000D01*
X66500000Y-171760000D01*
X66790839Y-171702148D01*
X67037401Y-171537401D01*
X67314991Y-171259811D01*
X67314838Y-171435167D01*
X67456883Y-171778943D01*
X67719673Y-172042192D01*
X68063201Y-172184838D01*
X68184775Y-172184944D01*
X69263460Y-173083848D01*
X69363994Y-173138559D01*
X69459161Y-173202148D01*
X69493328Y-173208944D01*
X69523924Y-173225595D01*
X69637734Y-173237669D01*
X69750000Y-173260000D01*
X84750000Y-173260000D01*
X85040839Y-173202148D01*
X85287401Y-173037401D01*
X91287401Y-167037401D01*
X91452148Y-166790840D01*
X91510000Y-166500000D01*
X91510000Y-164562463D01*
X91542192Y-164530327D01*
X91684838Y-164186799D01*
X91685162Y-163814833D01*
X91543117Y-163471057D01*
X91280327Y-163207808D01*
X90936799Y-163065162D01*
X90564833Y-163064838D01*
X90221057Y-163206883D01*
X89957808Y-163469673D01*
X89815162Y-163813201D01*
X89814838Y-164185167D01*
X89956883Y-164528943D01*
X89990000Y-164562118D01*
X89990000Y-166185198D01*
X84435198Y-171740000D01*
X83834802Y-171740000D01*
X85537401Y-170037401D01*
X85702148Y-169790839D01*
X85760000Y-169500000D01*
X85760000Y-163812463D01*
X85792192Y-163780327D01*
X85934838Y-163436799D01*
X85935162Y-163064833D01*
X85793117Y-162721057D01*
X85530327Y-162457808D01*
X85186799Y-162315162D01*
X84814833Y-162314838D01*
X84510000Y-162440792D01*
X84510000Y-158812463D01*
X84542192Y-158780327D01*
X84684838Y-158436799D01*
X84685162Y-158064833D01*
X84543117Y-157721057D01*
X84280327Y-157457808D01*
X83936799Y-157315162D01*
X83935162Y-157315161D01*
X83935162Y-157314833D01*
X83793117Y-156971057D01*
X83530327Y-156707808D01*
X83186799Y-156565162D01*
X82814833Y-156564838D01*
X82471057Y-156706883D01*
X82207808Y-156969673D01*
X82065162Y-157313201D01*
X82064838Y-157685167D01*
X82206883Y-158028943D01*
X82240000Y-158062118D01*
X82240000Y-167837253D01*
X82186799Y-167815162D01*
X81814833Y-167814838D01*
X81471057Y-167956883D01*
X81437882Y-167990000D01*
X74058937Y-167990000D01*
X74184838Y-167686799D01*
X74185162Y-167314833D01*
X74043117Y-166971057D01*
X73792039Y-166719541D01*
X73787401Y-166712599D01*
X72721606Y-165646804D01*
X72813201Y-165684838D01*
X73185167Y-165685162D01*
X73528943Y-165543117D01*
X73792192Y-165280327D01*
X73934838Y-164936799D01*
X73935162Y-164564833D01*
X73793117Y-164221057D01*
X73760000Y-164187882D01*
X73760000Y-161812463D01*
X73792192Y-161780327D01*
X73934838Y-161436799D01*
X73935162Y-161064833D01*
X73809208Y-160760000D01*
X80187537Y-160760000D01*
X80219673Y-160792192D01*
X80563201Y-160934838D01*
X80935167Y-160935162D01*
X81278943Y-160793117D01*
X81542192Y-160530327D01*
X81684838Y-160186799D01*
X81685162Y-159814833D01*
X81543117Y-159471057D01*
X81280327Y-159207808D01*
X80936799Y-159065162D01*
X80564833Y-159064838D01*
X80221057Y-159206883D01*
X80187882Y-159240000D01*
X71584802Y-159240000D01*
X73419072Y-157405730D01*
X73575169Y-157783515D01*
X73964436Y-158173461D01*
X74473298Y-158384759D01*
X75024285Y-158385240D01*
X75533515Y-158174831D01*
X75923461Y-157785564D01*
X76134759Y-157276702D01*
X76135240Y-156725715D01*
X76124670Y-156700132D01*
X80287401Y-152537401D01*
X80452148Y-152290839D01*
X80510000Y-152000000D01*
X80510000Y-149882400D01*
X82484960Y-149882400D01*
X82484960Y-152117600D01*
X82529238Y-152352917D01*
X82668310Y-152569041D01*
X82880510Y-152714031D01*
X83132400Y-152765040D01*
X85367600Y-152765040D01*
X85602917Y-152720762D01*
X85819041Y-152581690D01*
X85964031Y-152369490D01*
X86015040Y-152117600D01*
X86015040Y-149882400D01*
X85970762Y-149647083D01*
X85831690Y-149430959D01*
X85619490Y-149285969D01*
X85367600Y-149234960D01*
X83132400Y-149234960D01*
X82897083Y-149279238D01*
X82680959Y-149418310D01*
X82535969Y-149630510D01*
X82484960Y-149882400D01*
X80510000Y-149882400D01*
X80510000Y-146064802D01*
X81814802Y-144760000D01*
X89315453Y-144760000D01*
X89325169Y-144783515D01*
X89714436Y-145173461D01*
X90223298Y-145384759D01*
X90774285Y-145385240D01*
X91283515Y-145174831D01*
X91673461Y-144785564D01*
X91684076Y-144760000D01*
X98685198Y-144760000D01*
X102021700Y-148096502D01*
X101865241Y-148473298D01*
X101864760Y-149024285D01*
X102075169Y-149533515D01*
X102464436Y-149923461D01*
X102973298Y-150134759D01*
X103524285Y-150135240D01*
X104033515Y-149924831D01*
X104423461Y-149535564D01*
X104634759Y-149026702D01*
X104635240Y-148475715D01*
X104424831Y-147966485D01*
X104035564Y-147576539D01*
X103526702Y-147365241D01*
X103439967Y-147365165D01*
X99537401Y-143462599D01*
X99290839Y-143297852D01*
X99000000Y-143240000D01*
X91684547Y-143240000D01*
X91674831Y-143216485D01*
X91285564Y-142826539D01*
X90776702Y-142615241D01*
X90225715Y-142614760D01*
X89716485Y-142825169D01*
X89326539Y-143214436D01*
X89315924Y-143240000D01*
X81500000Y-143240000D01*
X81209161Y-143297852D01*
X80962599Y-143462599D01*
X79212599Y-145212599D01*
X79047852Y-145459161D01*
X78990000Y-145750000D01*
X78990000Y-147587253D01*
X78936799Y-147565162D01*
X78564833Y-147564838D01*
X78221057Y-147706883D01*
X77957808Y-147969673D01*
X77815162Y-148313201D01*
X77814838Y-148685167D01*
X77956883Y-149028943D01*
X77990000Y-149062118D01*
X77990000Y-150685198D01*
X70185198Y-158490000D01*
X64250000Y-158490000D01*
X63959160Y-158547852D01*
X63712599Y-158712599D01*
X63360320Y-159064878D01*
X63314833Y-159064838D01*
X62971057Y-159206883D01*
X62707808Y-159469673D01*
X62565162Y-159813201D01*
X62564838Y-160185167D01*
X62706883Y-160528943D01*
X62917572Y-160740000D01*
X59714802Y-160740000D01*
X59010000Y-160035198D01*
X59010000Y-158814802D01*
X59314802Y-158510000D01*
X59937537Y-158510000D01*
X59969673Y-158542192D01*
X60313201Y-158684838D01*
X60685167Y-158685162D01*
X61028943Y-158543117D01*
X61292192Y-158280327D01*
X61434838Y-157936799D01*
X61435162Y-157564833D01*
X61293117Y-157221057D01*
X61030327Y-156957808D01*
X60686799Y-156815162D01*
X60314833Y-156814838D01*
X59971057Y-156956883D01*
X59937882Y-156990000D01*
X59000000Y-156990000D01*
X58709160Y-157047852D01*
X58462599Y-157212599D01*
X57712599Y-157962599D01*
X57547852Y-158209161D01*
X57490000Y-158500000D01*
X57490000Y-160350000D01*
X57547852Y-160640839D01*
X57628299Y-160761237D01*
X57276702Y-160615241D01*
X56725715Y-160614760D01*
X56216485Y-160825169D01*
X55826539Y-161214436D01*
X55815924Y-161240000D01*
X51564802Y-161240000D01*
X50760000Y-160435198D01*
X50760000Y-157314802D01*
X51603196Y-156471606D01*
X51565162Y-156563201D01*
X51564838Y-156935167D01*
X51706883Y-157278943D01*
X51969673Y-157542192D01*
X52313201Y-157684838D01*
X52685167Y-157685162D01*
X53028943Y-157543117D01*
X53062118Y-157510000D01*
X55687537Y-157510000D01*
X55719673Y-157542192D01*
X56063201Y-157684838D01*
X56435167Y-157685162D01*
X56778943Y-157543117D01*
X57042192Y-157280327D01*
X57184838Y-156936799D01*
X57185162Y-156564833D01*
X57043117Y-156221057D01*
X56780327Y-155957808D01*
X56436799Y-155815162D01*
X56064833Y-155814838D01*
X55721057Y-155956883D01*
X55687882Y-155990000D01*
X53062463Y-155990000D01*
X53030327Y-155957808D01*
X52686799Y-155815162D01*
X52314833Y-155814838D01*
X52221329Y-155853473D01*
X56564802Y-151510000D01*
X58815453Y-151510000D01*
X58825169Y-151533515D01*
X59214436Y-151923461D01*
X59723298Y-152134759D01*
X60274285Y-152135240D01*
X60783515Y-151924831D01*
X61173461Y-151535564D01*
X61384759Y-151026702D01*
X61385240Y-150475715D01*
X61174831Y-149966485D01*
X60785564Y-149576539D01*
X60276702Y-149365241D01*
X59725715Y-149364760D01*
X59216485Y-149575169D01*
X58826539Y-149964436D01*
X58815924Y-149990000D01*
X56250000Y-149990000D01*
X55959161Y-150047852D01*
X55712599Y-150212599D01*
X49462599Y-156462599D01*
X49297852Y-156709161D01*
X49240000Y-157000000D01*
X49240000Y-160750000D01*
X49297852Y-161040839D01*
X49462599Y-161287401D01*
X50712599Y-162537401D01*
X50959161Y-162702148D01*
X51250000Y-162760000D01*
X55815453Y-162760000D01*
X55825169Y-162783515D01*
X56214436Y-163173461D01*
X56723298Y-163384759D01*
X57274285Y-163385240D01*
X57783515Y-163174831D01*
X58173461Y-162785564D01*
X58384759Y-162276702D01*
X58385240Y-161725715D01*
X58268585Y-161443387D01*
X58862599Y-162037401D01*
X59109161Y-162202148D01*
X59400000Y-162260000D01*
X65935198Y-162260000D01*
X72415198Y-168740000D01*
X70814802Y-168740000D01*
X70185122Y-168110320D01*
X70185162Y-168064833D01*
X70043117Y-167721057D01*
X69780327Y-167457808D01*
X69436799Y-167315162D01*
X69064833Y-167314838D01*
X68721057Y-167456883D01*
X68457808Y-167719673D01*
X68409149Y-167836855D01*
X68280327Y-167707808D01*
X67936799Y-167565162D01*
X67564833Y-167564838D01*
X67249649Y-167695069D01*
X66936799Y-167565162D01*
X66564833Y-167564838D01*
X66221057Y-167706883D01*
X65957808Y-167969673D01*
X65815162Y-168313201D01*
X65814838Y-168685167D01*
X65855173Y-168782784D01*
X65780327Y-168707808D01*
X65436799Y-168565162D01*
X65064833Y-168564838D01*
X64721057Y-168706883D01*
X64687882Y-168740000D01*
X57562463Y-168740000D01*
X57530327Y-168707808D01*
X57186799Y-168565162D01*
X56814833Y-168564838D01*
X56471057Y-168706883D01*
X56207808Y-168969673D01*
X56065162Y-169313201D01*
X56064838Y-169685167D01*
X56206883Y-170028943D01*
X56469673Y-170292192D01*
X56761732Y-170413466D01*
X55212599Y-171962599D01*
X55047852Y-172209161D01*
X54990000Y-172500000D01*
X54990000Y-173577465D01*
X54460000Y-173472041D01*
X53886511Y-173586115D01*
X53400330Y-173910971D01*
X53190000Y-174225752D01*
X52979670Y-173910971D01*
X52493489Y-173586115D01*
X51920000Y-173472041D01*
X51346511Y-173586115D01*
X50885000Y-173894487D01*
X50885000Y-172500005D01*
X50885001Y-172500000D01*
X50885000Y-172499995D01*
X50885000Y-172450000D01*
X50817633Y-172111325D01*
X50625790Y-171824210D01*
X50475105Y-171723526D01*
X43885000Y-165133420D01*
X43885000Y-162750005D01*
X43885001Y-162750000D01*
X43817633Y-162411326D01*
X43817633Y-162411325D01*
X43625790Y-162124210D01*
X43625787Y-162124208D01*
X41955790Y-160454210D01*
X41952704Y-160452148D01*
X41668675Y-160262367D01*
X41606502Y-160250000D01*
X41349444Y-160198867D01*
X41340290Y-160185167D01*
X47314838Y-160185167D01*
X47456883Y-160528943D01*
X47490000Y-160562118D01*
X47490000Y-163437537D01*
X47457808Y-163469673D01*
X47315162Y-163813201D01*
X47314838Y-164185167D01*
X47456883Y-164528943D01*
X47719673Y-164792192D01*
X48063201Y-164934838D01*
X48435167Y-164935162D01*
X48778943Y-164793117D01*
X49042192Y-164530327D01*
X49184838Y-164186799D01*
X49185162Y-163814833D01*
X49043117Y-163471057D01*
X49010000Y-163437882D01*
X49010000Y-160562463D01*
X49042192Y-160530327D01*
X49184838Y-160186799D01*
X49185162Y-159814833D01*
X49043117Y-159471057D01*
X48780327Y-159207808D01*
X48436799Y-159065162D01*
X48064833Y-159064838D01*
X47721057Y-159206883D01*
X47457808Y-159469673D01*
X47315162Y-159813201D01*
X47314838Y-160185167D01*
X41340290Y-160185167D01*
X41224763Y-160012269D01*
X40922046Y-159810000D01*
X41224763Y-159607731D01*
X41552090Y-159117852D01*
X41667032Y-158540000D01*
X41552090Y-157962148D01*
X41224763Y-157472269D01*
X41211413Y-157463349D01*
X41359698Y-157401927D01*
X41538327Y-157223299D01*
X41635000Y-156989910D01*
X41635000Y-156285750D01*
X41476250Y-156127000D01*
X40127000Y-156127000D01*
X40127000Y-156147000D01*
X39873000Y-156147000D01*
X39873000Y-156127000D01*
X39853000Y-156127000D01*
X39853000Y-155873000D01*
X39873000Y-155873000D01*
X39873000Y-154660150D01*
X40127000Y-154660150D01*
X40127000Y-155873000D01*
X41476250Y-155873000D01*
X41635000Y-155714250D01*
X41635000Y-155010090D01*
X41538327Y-154776701D01*
X41359698Y-154598073D01*
X41126309Y-154501400D01*
X40285750Y-154501400D01*
X40127000Y-154660150D01*
X39873000Y-154660150D01*
X39714250Y-154501400D01*
X38873691Y-154501400D01*
X38710000Y-154569203D01*
X38710000Y-145717968D01*
X40215000Y-145717968D01*
X40215000Y-146282032D01*
X40320427Y-146812049D01*
X40620657Y-147261375D01*
X41069983Y-147561605D01*
X41600000Y-147667032D01*
X42130017Y-147561605D01*
X42579343Y-147261375D01*
X42879573Y-146812049D01*
X42976692Y-146323795D01*
X44364716Y-146323795D01*
X44613106Y-146924943D01*
X45072637Y-147385278D01*
X45673352Y-147634716D01*
X46323795Y-147635284D01*
X46924943Y-147386894D01*
X47385278Y-146927363D01*
X47634716Y-146326648D01*
X47635284Y-145676205D01*
X47386894Y-145075057D01*
X46927363Y-144614722D01*
X46326648Y-144365284D01*
X45676205Y-144364716D01*
X45075057Y-144613106D01*
X44614722Y-145072637D01*
X44365284Y-145673352D01*
X44364716Y-146323795D01*
X42976692Y-146323795D01*
X42985000Y-146282032D01*
X42985000Y-145717968D01*
X42879573Y-145187951D01*
X42579343Y-144738625D01*
X42130017Y-144438395D01*
X41600000Y-144332968D01*
X41069983Y-144438395D01*
X40620657Y-144738625D01*
X40320427Y-145187951D01*
X40215000Y-145717968D01*
X38710000Y-145717968D01*
X38710000Y-143935167D01*
X54064838Y-143935167D01*
X54206883Y-144278943D01*
X54469673Y-144542192D01*
X54813201Y-144684838D01*
X55185167Y-144685162D01*
X55528943Y-144543117D01*
X55562118Y-144510000D01*
X59687537Y-144510000D01*
X59719673Y-144542192D01*
X60063201Y-144684838D01*
X60435167Y-144685162D01*
X60778943Y-144543117D01*
X61042192Y-144280327D01*
X61184838Y-143936799D01*
X61185162Y-143564833D01*
X61043117Y-143221057D01*
X60780327Y-142957808D01*
X60436799Y-142815162D01*
X60064833Y-142814838D01*
X59721057Y-142956883D01*
X59687882Y-142990000D01*
X55562463Y-142990000D01*
X55530327Y-142957808D01*
X55186799Y-142815162D01*
X54814833Y-142814838D01*
X54471057Y-142956883D01*
X54207808Y-143219673D01*
X54065162Y-143563201D01*
X54064838Y-143935167D01*
X38710000Y-143935167D01*
X38710000Y-135069931D01*
X38723910Y-135000000D01*
X40190000Y-135000000D01*
X40480019Y-136458024D01*
X41305923Y-137694077D01*
X42541976Y-138519981D01*
X44000000Y-138810000D01*
X45458024Y-138519981D01*
X46694077Y-137694077D01*
X47275580Y-136823795D01*
X53364716Y-136823795D01*
X53613106Y-137424943D01*
X54072637Y-137885278D01*
X54348856Y-137999974D01*
X54075057Y-138113106D01*
X53614722Y-138572637D01*
X53365284Y-139173352D01*
X53364716Y-139823795D01*
X53613106Y-140424943D01*
X54072637Y-140885278D01*
X54673352Y-141134716D01*
X55323795Y-141135284D01*
X55924943Y-140886894D01*
X56385278Y-140427363D01*
X56634716Y-139826648D01*
X56635284Y-139176205D01*
X56386894Y-138575057D01*
X55927363Y-138114722D01*
X55651144Y-138000026D01*
X55924943Y-137886894D01*
X56385278Y-137427363D01*
X56634716Y-136826648D01*
X56635284Y-136176205D01*
X56386894Y-135575057D01*
X55927363Y-135114722D01*
X55651082Y-135000000D01*
X60190000Y-135000000D01*
X60480019Y-136458024D01*
X61305923Y-137694077D01*
X62541976Y-138519981D01*
X64000000Y-138810000D01*
X65458024Y-138519981D01*
X66694077Y-137694077D01*
X67519981Y-136458024D01*
X67810000Y-135000000D01*
X100190000Y-135000000D01*
X100480019Y-136458024D01*
X101305923Y-137694077D01*
X102541976Y-138519981D01*
X104000000Y-138810000D01*
X105458024Y-138519981D01*
X106694077Y-137694077D01*
X107519981Y-136458024D01*
X107810000Y-135000000D01*
X107519981Y-133541976D01*
X106694077Y-132305923D01*
X105458024Y-131480019D01*
X104000000Y-131190000D01*
X102541976Y-131480019D01*
X101305923Y-132305923D01*
X100480019Y-133541976D01*
X100190000Y-135000000D01*
X67810000Y-135000000D01*
X67519981Y-133541976D01*
X67052919Y-132842968D01*
X70410000Y-132842968D01*
X70410000Y-133157032D01*
X70524942Y-133734884D01*
X70852269Y-134224763D01*
X71342148Y-134552090D01*
X71920000Y-134667032D01*
X72497852Y-134552090D01*
X72987731Y-134224763D01*
X73190000Y-133922046D01*
X73392269Y-134224763D01*
X73882148Y-134552090D01*
X74460000Y-134667032D01*
X75037852Y-134552090D01*
X75527731Y-134224763D01*
X75529614Y-134221945D01*
X75586673Y-134359698D01*
X75765301Y-134538327D01*
X75998690Y-134635000D01*
X76714250Y-134635000D01*
X76873000Y-134476250D01*
X76873000Y-133127000D01*
X77127000Y-133127000D01*
X77127000Y-134476250D01*
X77285750Y-134635000D01*
X78001310Y-134635000D01*
X78234699Y-134538327D01*
X78413327Y-134359698D01*
X78510000Y-134126309D01*
X78510000Y-133285750D01*
X78351250Y-133127000D01*
X77127000Y-133127000D01*
X76873000Y-133127000D01*
X76853000Y-133127000D01*
X76853000Y-132873000D01*
X76873000Y-132873000D01*
X76873000Y-131523750D01*
X77127000Y-131523750D01*
X77127000Y-132873000D01*
X78351250Y-132873000D01*
X78510000Y-132714250D01*
X78510000Y-131873691D01*
X78413327Y-131640302D01*
X78234699Y-131461673D01*
X78001310Y-131365000D01*
X77285750Y-131365000D01*
X77127000Y-131523750D01*
X76873000Y-131523750D01*
X76714250Y-131365000D01*
X75998690Y-131365000D01*
X75765301Y-131461673D01*
X75586673Y-131640302D01*
X75529614Y-131778055D01*
X75527731Y-131775237D01*
X75037852Y-131447910D01*
X74460000Y-131332968D01*
X73882148Y-131447910D01*
X73392269Y-131775237D01*
X73190000Y-132077954D01*
X72987731Y-131775237D01*
X72497852Y-131447910D01*
X71920000Y-131332968D01*
X71342148Y-131447910D01*
X70852269Y-131775237D01*
X70524942Y-132265116D01*
X70410000Y-132842968D01*
X67052919Y-132842968D01*
X66694077Y-132305923D01*
X65458024Y-131480019D01*
X64000000Y-131190000D01*
X62541976Y-131480019D01*
X61305923Y-132305923D01*
X60480019Y-133541976D01*
X60190000Y-135000000D01*
X55651082Y-135000000D01*
X55326648Y-134865284D01*
X54676205Y-134864716D01*
X54075057Y-135113106D01*
X53614722Y-135572637D01*
X53365284Y-136173352D01*
X53364716Y-136823795D01*
X47275580Y-136823795D01*
X47519981Y-136458024D01*
X47810000Y-135000000D01*
X47519981Y-133541976D01*
X46694077Y-132305923D01*
X45458024Y-131480019D01*
X44000000Y-131190000D01*
X42541976Y-131480019D01*
X41305923Y-132305923D01*
X40480019Y-133541976D01*
X40190000Y-135000000D01*
X38723910Y-135000000D01*
X39108353Y-133067275D01*
X39228819Y-132826342D01*
X40269241Y-131269240D01*
X41826340Y-130228820D01*
X42067273Y-130108354D01*
X44069931Y-129710000D01*
X103930069Y-129710000D01*
X105932725Y-130108353D01*
X105932725Y-130108353D01*
G37*
X105932725Y-130108353D02*
X106173658Y-130228819D01*
X107730760Y-131269241D01*
X108771180Y-132826340D01*
X108891646Y-133067273D01*
X109290000Y-135069931D01*
X109290000Y-174930069D01*
X108891646Y-176932727D01*
X108771180Y-177173660D01*
X107730760Y-178730759D01*
X106019072Y-179874472D01*
X103930069Y-180290000D01*
X56130031Y-180290000D01*
X56375790Y-180125790D01*
X56375791Y-180125789D01*
X57541289Y-178960290D01*
X57573489Y-178953885D01*
X58059670Y-178629029D01*
X58384526Y-178142848D01*
X58412940Y-178000000D01*
X71932041Y-178000000D01*
X72046115Y-178573489D01*
X72370971Y-179059670D01*
X72857152Y-179384526D01*
X73430641Y-179498600D01*
X73489359Y-179498600D01*
X74062848Y-179384526D01*
X74534356Y-179069474D01*
X74598073Y-179223299D01*
X74776702Y-179401927D01*
X75010091Y-179498600D01*
X75714250Y-179498600D01*
X75873000Y-179339850D01*
X75873000Y-178127000D01*
X76127000Y-178127000D01*
X76127000Y-179339850D01*
X76285750Y-179498600D01*
X76989909Y-179498600D01*
X77223298Y-179401927D01*
X77401927Y-179223299D01*
X77498600Y-178989910D01*
X77498600Y-178285750D01*
X77339850Y-178127000D01*
X76127000Y-178127000D01*
X75873000Y-178127000D01*
X75853000Y-178127000D01*
X75853000Y-177873000D01*
X75873000Y-177873000D01*
X75873000Y-176660150D01*
X76127000Y-176660150D01*
X76127000Y-177873000D01*
X77339850Y-177873000D01*
X77498600Y-177714250D01*
X77498600Y-177010090D01*
X77401927Y-176776701D01*
X77223298Y-176598073D01*
X76989909Y-176501400D01*
X76285750Y-176501400D01*
X76127000Y-176660150D01*
X75873000Y-176660150D01*
X75714250Y-176501400D01*
X75010091Y-176501400D01*
X74776702Y-176598073D01*
X74598073Y-176776701D01*
X74534356Y-176930526D01*
X74062848Y-176615474D01*
X73489359Y-176501400D01*
X73430641Y-176501400D01*
X72857152Y-176615474D01*
X72370971Y-176940330D01*
X72046115Y-177426511D01*
X71932041Y-178000000D01*
X58412940Y-178000000D01*
X58498600Y-177569359D01*
X58498600Y-177510641D01*
X58384526Y-176937152D01*
X58073426Y-176471558D01*
X58098917Y-176466762D01*
X58315041Y-176327690D01*
X58460031Y-176115490D01*
X58511040Y-175863600D01*
X58511040Y-175000000D01*
X100190000Y-175000000D01*
X100480019Y-176458024D01*
X101305923Y-177694077D01*
X102541976Y-178519981D01*
X104000000Y-178810000D01*
X105458024Y-178519981D01*
X106694077Y-177694077D01*
X107519981Y-176458024D01*
X107810000Y-175000000D01*
X107519981Y-173541976D01*
X106694077Y-172305923D01*
X105458024Y-171480019D01*
X104000000Y-171190000D01*
X102541976Y-171480019D01*
X101305923Y-172305923D01*
X100480019Y-173541976D01*
X100190000Y-175000000D01*
X58511040Y-175000000D01*
X58511040Y-174136400D01*
X58466762Y-173901083D01*
X58327690Y-173684959D01*
X58115490Y-173539969D01*
X57863600Y-173488960D01*
X57835842Y-173488960D01*
X59564802Y-171760000D01*
X66500000Y-171760000D01*
X66790839Y-171702148D01*
X67037401Y-171537401D01*
X67314991Y-171259811D01*
X67314838Y-171435167D01*
X67456883Y-171778943D01*
X67719673Y-172042192D01*
X68063201Y-172184838D01*
X68184775Y-172184944D01*
X69263460Y-173083848D01*
X69363994Y-173138559D01*
X69459161Y-173202148D01*
X69493328Y-173208944D01*
X69523924Y-173225595D01*
X69637734Y-173237669D01*
X69750000Y-173260000D01*
X84750000Y-173260000D01*
X85040839Y-173202148D01*
X85287401Y-173037401D01*
X91287401Y-167037401D01*
X91452148Y-166790840D01*
X91510000Y-166500000D01*
X91510000Y-164562463D01*
X91542192Y-164530327D01*
X91684838Y-164186799D01*
X91685162Y-163814833D01*
X91543117Y-163471057D01*
X91280327Y-163207808D01*
X90936799Y-163065162D01*
X90564833Y-163064838D01*
X90221057Y-163206883D01*
X89957808Y-163469673D01*
X89815162Y-163813201D01*
X89814838Y-164185167D01*
X89956883Y-164528943D01*
X89990000Y-164562118D01*
X89990000Y-166185198D01*
X84435198Y-171740000D01*
X83834802Y-171740000D01*
X85537401Y-170037401D01*
X85702148Y-169790839D01*
X85760000Y-169500000D01*
X85760000Y-163812463D01*
X85792192Y-163780327D01*
X85934838Y-163436799D01*
X85935162Y-163064833D01*
X85793117Y-162721057D01*
X85530327Y-162457808D01*
X85186799Y-162315162D01*
X84814833Y-162314838D01*
X84510000Y-162440792D01*
X84510000Y-158812463D01*
X84542192Y-158780327D01*
X84684838Y-158436799D01*
X84685162Y-158064833D01*
X84543117Y-157721057D01*
X84280327Y-157457808D01*
X83936799Y-157315162D01*
X83935162Y-157315161D01*
X83935162Y-157314833D01*
X83793117Y-156971057D01*
X83530327Y-156707808D01*
X83186799Y-156565162D01*
X82814833Y-156564838D01*
X82471057Y-156706883D01*
X82207808Y-156969673D01*
X82065162Y-157313201D01*
X82064838Y-157685167D01*
X82206883Y-158028943D01*
X82240000Y-158062118D01*
X82240000Y-167837253D01*
X82186799Y-167815162D01*
X81814833Y-167814838D01*
X81471057Y-167956883D01*
X81437882Y-167990000D01*
X74058937Y-167990000D01*
X74184838Y-167686799D01*
X74185162Y-167314833D01*
X74043117Y-166971057D01*
X73792039Y-166719541D01*
X73787401Y-166712599D01*
X72721606Y-165646804D01*
X72813201Y-165684838D01*
X73185167Y-165685162D01*
X73528943Y-165543117D01*
X73792192Y-165280327D01*
X73934838Y-164936799D01*
X73935162Y-164564833D01*
X73793117Y-164221057D01*
X73760000Y-164187882D01*
X73760000Y-161812463D01*
X73792192Y-161780327D01*
X73934838Y-161436799D01*
X73935162Y-161064833D01*
X73809208Y-160760000D01*
X80187537Y-160760000D01*
X80219673Y-160792192D01*
X80563201Y-160934838D01*
X80935167Y-160935162D01*
X81278943Y-160793117D01*
X81542192Y-160530327D01*
X81684838Y-160186799D01*
X81685162Y-159814833D01*
X81543117Y-159471057D01*
X81280327Y-159207808D01*
X80936799Y-159065162D01*
X80564833Y-159064838D01*
X80221057Y-159206883D01*
X80187882Y-159240000D01*
X71584802Y-159240000D01*
X73419072Y-157405730D01*
X73575169Y-157783515D01*
X73964436Y-158173461D01*
X74473298Y-158384759D01*
X75024285Y-158385240D01*
X75533515Y-158174831D01*
X75923461Y-157785564D01*
X76134759Y-157276702D01*
X76135240Y-156725715D01*
X76124670Y-156700132D01*
X80287401Y-152537401D01*
X80452148Y-152290839D01*
X80510000Y-152000000D01*
X80510000Y-149882400D01*
X82484960Y-149882400D01*
X82484960Y-152117600D01*
X82529238Y-152352917D01*
X82668310Y-152569041D01*
X82880510Y-152714031D01*
X83132400Y-152765040D01*
X85367600Y-152765040D01*
X85602917Y-152720762D01*
X85819041Y-152581690D01*
X85964031Y-152369490D01*
X86015040Y-152117600D01*
X86015040Y-149882400D01*
X85970762Y-149647083D01*
X85831690Y-149430959D01*
X85619490Y-149285969D01*
X85367600Y-149234960D01*
X83132400Y-149234960D01*
X82897083Y-149279238D01*
X82680959Y-149418310D01*
X82535969Y-149630510D01*
X82484960Y-149882400D01*
X80510000Y-149882400D01*
X80510000Y-146064802D01*
X81814802Y-144760000D01*
X89315453Y-144760000D01*
X89325169Y-144783515D01*
X89714436Y-145173461D01*
X90223298Y-145384759D01*
X90774285Y-145385240D01*
X91283515Y-145174831D01*
X91673461Y-144785564D01*
X91684076Y-144760000D01*
X98685198Y-144760000D01*
X102021700Y-148096502D01*
X101865241Y-148473298D01*
X101864760Y-149024285D01*
X102075169Y-149533515D01*
X102464436Y-149923461D01*
X102973298Y-150134759D01*
X103524285Y-150135240D01*
X104033515Y-149924831D01*
X104423461Y-149535564D01*
X104634759Y-149026702D01*
X104635240Y-148475715D01*
X104424831Y-147966485D01*
X104035564Y-147576539D01*
X103526702Y-147365241D01*
X103439967Y-147365165D01*
X99537401Y-143462599D01*
X99290839Y-143297852D01*
X99000000Y-143240000D01*
X91684547Y-143240000D01*
X91674831Y-143216485D01*
X91285564Y-142826539D01*
X90776702Y-142615241D01*
X90225715Y-142614760D01*
X89716485Y-142825169D01*
X89326539Y-143214436D01*
X89315924Y-143240000D01*
X81500000Y-143240000D01*
X81209161Y-143297852D01*
X80962599Y-143462599D01*
X79212599Y-145212599D01*
X79047852Y-145459161D01*
X78990000Y-145750000D01*
X78990000Y-147587253D01*
X78936799Y-147565162D01*
X78564833Y-147564838D01*
X78221057Y-147706883D01*
X77957808Y-147969673D01*
X77815162Y-148313201D01*
X77814838Y-148685167D01*
X77956883Y-149028943D01*
X77990000Y-149062118D01*
X77990000Y-150685198D01*
X70185198Y-158490000D01*
X64250000Y-158490000D01*
X63959160Y-158547852D01*
X63712599Y-158712599D01*
X63360320Y-159064878D01*
X63314833Y-159064838D01*
X62971057Y-159206883D01*
X62707808Y-159469673D01*
X62565162Y-159813201D01*
X62564838Y-160185167D01*
X62706883Y-160528943D01*
X62917572Y-160740000D01*
X59714802Y-160740000D01*
X59010000Y-160035198D01*
X59010000Y-158814802D01*
X59314802Y-158510000D01*
X59937537Y-158510000D01*
X59969673Y-158542192D01*
X60313201Y-158684838D01*
X60685167Y-158685162D01*
X61028943Y-158543117D01*
X61292192Y-158280327D01*
X61434838Y-157936799D01*
X61435162Y-157564833D01*
X61293117Y-157221057D01*
X61030327Y-156957808D01*
X60686799Y-156815162D01*
X60314833Y-156814838D01*
X59971057Y-156956883D01*
X59937882Y-156990000D01*
X59000000Y-156990000D01*
X58709160Y-157047852D01*
X58462599Y-157212599D01*
X57712599Y-157962599D01*
X57547852Y-158209161D01*
X57490000Y-158500000D01*
X57490000Y-160350000D01*
X57547852Y-160640839D01*
X57628299Y-160761237D01*
X57276702Y-160615241D01*
X56725715Y-160614760D01*
X56216485Y-160825169D01*
X55826539Y-161214436D01*
X55815924Y-161240000D01*
X51564802Y-161240000D01*
X50760000Y-160435198D01*
X50760000Y-157314802D01*
X51603196Y-156471606D01*
X51565162Y-156563201D01*
X51564838Y-156935167D01*
X51706883Y-157278943D01*
X51969673Y-157542192D01*
X52313201Y-157684838D01*
X52685167Y-157685162D01*
X53028943Y-157543117D01*
X53062118Y-157510000D01*
X55687537Y-157510000D01*
X55719673Y-157542192D01*
X56063201Y-157684838D01*
X56435167Y-157685162D01*
X56778943Y-157543117D01*
X57042192Y-157280327D01*
X57184838Y-156936799D01*
X57185162Y-156564833D01*
X57043117Y-156221057D01*
X56780327Y-155957808D01*
X56436799Y-155815162D01*
X56064833Y-155814838D01*
X55721057Y-155956883D01*
X55687882Y-155990000D01*
X53062463Y-155990000D01*
X53030327Y-155957808D01*
X52686799Y-155815162D01*
X52314833Y-155814838D01*
X52221329Y-155853473D01*
X56564802Y-151510000D01*
X58815453Y-151510000D01*
X58825169Y-151533515D01*
X59214436Y-151923461D01*
X59723298Y-152134759D01*
X60274285Y-152135240D01*
X60783515Y-151924831D01*
X61173461Y-151535564D01*
X61384759Y-151026702D01*
X61385240Y-150475715D01*
X61174831Y-149966485D01*
X60785564Y-149576539D01*
X60276702Y-149365241D01*
X59725715Y-149364760D01*
X59216485Y-149575169D01*
X58826539Y-149964436D01*
X58815924Y-149990000D01*
X56250000Y-149990000D01*
X55959161Y-150047852D01*
X55712599Y-150212599D01*
X49462599Y-156462599D01*
X49297852Y-156709161D01*
X49240000Y-157000000D01*
X49240000Y-160750000D01*
X49297852Y-161040839D01*
X49462599Y-161287401D01*
X50712599Y-162537401D01*
X50959161Y-162702148D01*
X51250000Y-162760000D01*
X55815453Y-162760000D01*
X55825169Y-162783515D01*
X56214436Y-163173461D01*
X56723298Y-163384759D01*
X57274285Y-163385240D01*
X57783515Y-163174831D01*
X58173461Y-162785564D01*
X58384759Y-162276702D01*
X58385240Y-161725715D01*
X58268585Y-161443387D01*
X58862599Y-162037401D01*
X59109161Y-162202148D01*
X59400000Y-162260000D01*
X65935198Y-162260000D01*
X72415198Y-168740000D01*
X70814802Y-168740000D01*
X70185122Y-168110320D01*
X70185162Y-168064833D01*
X70043117Y-167721057D01*
X69780327Y-167457808D01*
X69436799Y-167315162D01*
X69064833Y-167314838D01*
X68721057Y-167456883D01*
X68457808Y-167719673D01*
X68409149Y-167836855D01*
X68280327Y-167707808D01*
X67936799Y-167565162D01*
X67564833Y-167564838D01*
X67249649Y-167695069D01*
X66936799Y-167565162D01*
X66564833Y-167564838D01*
X66221057Y-167706883D01*
X65957808Y-167969673D01*
X65815162Y-168313201D01*
X65814838Y-168685167D01*
X65855173Y-168782784D01*
X65780327Y-168707808D01*
X65436799Y-168565162D01*
X65064833Y-168564838D01*
X64721057Y-168706883D01*
X64687882Y-168740000D01*
X57562463Y-168740000D01*
X57530327Y-168707808D01*
X57186799Y-168565162D01*
X56814833Y-168564838D01*
X56471057Y-168706883D01*
X56207808Y-168969673D01*
X56065162Y-169313201D01*
X56064838Y-169685167D01*
X56206883Y-170028943D01*
X56469673Y-170292192D01*
X56761732Y-170413466D01*
X55212599Y-171962599D01*
X55047852Y-172209161D01*
X54990000Y-172500000D01*
X54990000Y-173577465D01*
X54460000Y-173472041D01*
X53886511Y-173586115D01*
X53400330Y-173910971D01*
X53190000Y-174225752D01*
X52979670Y-173910971D01*
X52493489Y-173586115D01*
X51920000Y-173472041D01*
X51346511Y-173586115D01*
X50885000Y-173894487D01*
X50885000Y-172500005D01*
X50885001Y-172500000D01*
X50885000Y-172499995D01*
X50885000Y-172450000D01*
X50817633Y-172111325D01*
X50625790Y-171824210D01*
X50475105Y-171723526D01*
X43885000Y-165133420D01*
X43885000Y-162750005D01*
X43885001Y-162750000D01*
X43817633Y-162411326D01*
X43817633Y-162411325D01*
X43625790Y-162124210D01*
X43625787Y-162124208D01*
X41955790Y-160454210D01*
X41952704Y-160452148D01*
X41668675Y-160262367D01*
X41606502Y-160250000D01*
X41349444Y-160198867D01*
X41340290Y-160185167D01*
X47314838Y-160185167D01*
X47456883Y-160528943D01*
X47490000Y-160562118D01*
X47490000Y-163437537D01*
X47457808Y-163469673D01*
X47315162Y-163813201D01*
X47314838Y-164185167D01*
X47456883Y-164528943D01*
X47719673Y-164792192D01*
X48063201Y-164934838D01*
X48435167Y-164935162D01*
X48778943Y-164793117D01*
X49042192Y-164530327D01*
X49184838Y-164186799D01*
X49185162Y-163814833D01*
X49043117Y-163471057D01*
X49010000Y-163437882D01*
X49010000Y-160562463D01*
X49042192Y-160530327D01*
X49184838Y-160186799D01*
X49185162Y-159814833D01*
X49043117Y-159471057D01*
X48780327Y-159207808D01*
X48436799Y-159065162D01*
X48064833Y-159064838D01*
X47721057Y-159206883D01*
X47457808Y-159469673D01*
X47315162Y-159813201D01*
X47314838Y-160185167D01*
X41340290Y-160185167D01*
X41224763Y-160012269D01*
X40922046Y-159810000D01*
X41224763Y-159607731D01*
X41552090Y-159117852D01*
X41667032Y-158540000D01*
X41552090Y-157962148D01*
X41224763Y-157472269D01*
X41211413Y-157463349D01*
X41359698Y-157401927D01*
X41538327Y-157223299D01*
X41635000Y-156989910D01*
X41635000Y-156285750D01*
X41476250Y-156127000D01*
X40127000Y-156127000D01*
X40127000Y-156147000D01*
X39873000Y-156147000D01*
X39873000Y-156127000D01*
X39853000Y-156127000D01*
X39853000Y-155873000D01*
X39873000Y-155873000D01*
X39873000Y-154660150D01*
X40127000Y-154660150D01*
X40127000Y-155873000D01*
X41476250Y-155873000D01*
X41635000Y-155714250D01*
X41635000Y-155010090D01*
X41538327Y-154776701D01*
X41359698Y-154598073D01*
X41126309Y-154501400D01*
X40285750Y-154501400D01*
X40127000Y-154660150D01*
X39873000Y-154660150D01*
X39714250Y-154501400D01*
X38873691Y-154501400D01*
X38710000Y-154569203D01*
X38710000Y-145717968D01*
X40215000Y-145717968D01*
X40215000Y-146282032D01*
X40320427Y-146812049D01*
X40620657Y-147261375D01*
X41069983Y-147561605D01*
X41600000Y-147667032D01*
X42130017Y-147561605D01*
X42579343Y-147261375D01*
X42879573Y-146812049D01*
X42976692Y-146323795D01*
X44364716Y-146323795D01*
X44613106Y-146924943D01*
X45072637Y-147385278D01*
X45673352Y-147634716D01*
X46323795Y-147635284D01*
X46924943Y-147386894D01*
X47385278Y-146927363D01*
X47634716Y-146326648D01*
X47635284Y-145676205D01*
X47386894Y-145075057D01*
X46927363Y-144614722D01*
X46326648Y-144365284D01*
X45676205Y-144364716D01*
X45075057Y-144613106D01*
X44614722Y-145072637D01*
X44365284Y-145673352D01*
X44364716Y-146323795D01*
X42976692Y-146323795D01*
X42985000Y-146282032D01*
X42985000Y-145717968D01*
X42879573Y-145187951D01*
X42579343Y-144738625D01*
X42130017Y-144438395D01*
X41600000Y-144332968D01*
X41069983Y-144438395D01*
X40620657Y-144738625D01*
X40320427Y-145187951D01*
X40215000Y-145717968D01*
X38710000Y-145717968D01*
X38710000Y-143935167D01*
X54064838Y-143935167D01*
X54206883Y-144278943D01*
X54469673Y-144542192D01*
X54813201Y-144684838D01*
X55185167Y-144685162D01*
X55528943Y-144543117D01*
X55562118Y-144510000D01*
X59687537Y-144510000D01*
X59719673Y-144542192D01*
X60063201Y-144684838D01*
X60435167Y-144685162D01*
X60778943Y-144543117D01*
X61042192Y-144280327D01*
X61184838Y-143936799D01*
X61185162Y-143564833D01*
X61043117Y-143221057D01*
X60780327Y-142957808D01*
X60436799Y-142815162D01*
X60064833Y-142814838D01*
X59721057Y-142956883D01*
X59687882Y-142990000D01*
X55562463Y-142990000D01*
X55530327Y-142957808D01*
X55186799Y-142815162D01*
X54814833Y-142814838D01*
X54471057Y-142956883D01*
X54207808Y-143219673D01*
X54065162Y-143563201D01*
X54064838Y-143935167D01*
X38710000Y-143935167D01*
X38710000Y-135069931D01*
X38723910Y-135000000D01*
X40190000Y-135000000D01*
X40480019Y-136458024D01*
X41305923Y-137694077D01*
X42541976Y-138519981D01*
X44000000Y-138810000D01*
X45458024Y-138519981D01*
X46694077Y-137694077D01*
X47275580Y-136823795D01*
X53364716Y-136823795D01*
X53613106Y-137424943D01*
X54072637Y-137885278D01*
X54348856Y-137999974D01*
X54075057Y-138113106D01*
X53614722Y-138572637D01*
X53365284Y-139173352D01*
X53364716Y-139823795D01*
X53613106Y-140424943D01*
X54072637Y-140885278D01*
X54673352Y-141134716D01*
X55323795Y-141135284D01*
X55924943Y-140886894D01*
X56385278Y-140427363D01*
X56634716Y-139826648D01*
X56635284Y-139176205D01*
X56386894Y-138575057D01*
X55927363Y-138114722D01*
X55651144Y-138000026D01*
X55924943Y-137886894D01*
X56385278Y-137427363D01*
X56634716Y-136826648D01*
X56635284Y-136176205D01*
X56386894Y-135575057D01*
X55927363Y-135114722D01*
X55651082Y-135000000D01*
X60190000Y-135000000D01*
X60480019Y-136458024D01*
X61305923Y-137694077D01*
X62541976Y-138519981D01*
X64000000Y-138810000D01*
X65458024Y-138519981D01*
X66694077Y-137694077D01*
X67519981Y-136458024D01*
X67810000Y-135000000D01*
X100190000Y-135000000D01*
X100480019Y-136458024D01*
X101305923Y-137694077D01*
X102541976Y-138519981D01*
X104000000Y-138810000D01*
X105458024Y-138519981D01*
X106694077Y-137694077D01*
X107519981Y-136458024D01*
X107810000Y-135000000D01*
X107519981Y-133541976D01*
X106694077Y-132305923D01*
X105458024Y-131480019D01*
X104000000Y-131190000D01*
X102541976Y-131480019D01*
X101305923Y-132305923D01*
X100480019Y-133541976D01*
X100190000Y-135000000D01*
X67810000Y-135000000D01*
X67519981Y-133541976D01*
X67052919Y-132842968D01*
X70410000Y-132842968D01*
X70410000Y-133157032D01*
X70524942Y-133734884D01*
X70852269Y-134224763D01*
X71342148Y-134552090D01*
X71920000Y-134667032D01*
X72497852Y-134552090D01*
X72987731Y-134224763D01*
X73190000Y-133922046D01*
X73392269Y-134224763D01*
X73882148Y-134552090D01*
X74460000Y-134667032D01*
X75037852Y-134552090D01*
X75527731Y-134224763D01*
X75529614Y-134221945D01*
X75586673Y-134359698D01*
X75765301Y-134538327D01*
X75998690Y-134635000D01*
X76714250Y-134635000D01*
X76873000Y-134476250D01*
X76873000Y-133127000D01*
X77127000Y-133127000D01*
X77127000Y-134476250D01*
X77285750Y-134635000D01*
X78001310Y-134635000D01*
X78234699Y-134538327D01*
X78413327Y-134359698D01*
X78510000Y-134126309D01*
X78510000Y-133285750D01*
X78351250Y-133127000D01*
X77127000Y-133127000D01*
X76873000Y-133127000D01*
X76853000Y-133127000D01*
X76853000Y-132873000D01*
X76873000Y-132873000D01*
X76873000Y-131523750D01*
X77127000Y-131523750D01*
X77127000Y-132873000D01*
X78351250Y-132873000D01*
X78510000Y-132714250D01*
X78510000Y-131873691D01*
X78413327Y-131640302D01*
X78234699Y-131461673D01*
X78001310Y-131365000D01*
X77285750Y-131365000D01*
X77127000Y-131523750D01*
X76873000Y-131523750D01*
X76714250Y-131365000D01*
X75998690Y-131365000D01*
X75765301Y-131461673D01*
X75586673Y-131640302D01*
X75529614Y-131778055D01*
X75527731Y-131775237D01*
X75037852Y-131447910D01*
X74460000Y-131332968D01*
X73882148Y-131447910D01*
X73392269Y-131775237D01*
X73190000Y-132077954D01*
X72987731Y-131775237D01*
X72497852Y-131447910D01*
X71920000Y-131332968D01*
X71342148Y-131447910D01*
X70852269Y-131775237D01*
X70524942Y-132265116D01*
X70410000Y-132842968D01*
X67052919Y-132842968D01*
X66694077Y-132305923D01*
X65458024Y-131480019D01*
X64000000Y-131190000D01*
X62541976Y-131480019D01*
X61305923Y-132305923D01*
X60480019Y-133541976D01*
X60190000Y-135000000D01*
X55651082Y-135000000D01*
X55326648Y-134865284D01*
X54676205Y-134864716D01*
X54075057Y-135113106D01*
X53614722Y-135572637D01*
X53365284Y-136173352D01*
X53364716Y-136823795D01*
X47275580Y-136823795D01*
X47519981Y-136458024D01*
X47810000Y-135000000D01*
X47519981Y-133541976D01*
X46694077Y-132305923D01*
X45458024Y-131480019D01*
X44000000Y-131190000D01*
X42541976Y-131480019D01*
X41305923Y-132305923D01*
X40480019Y-133541976D01*
X40190000Y-135000000D01*
X38723910Y-135000000D01*
X39108353Y-133067275D01*
X39228819Y-132826342D01*
X40269241Y-131269240D01*
X41826340Y-130228820D01*
X42067273Y-130108354D01*
X44069931Y-129710000D01*
X103930069Y-129710000D01*
X105932725Y-130108353D01*
G36*
X52047000Y-177413000D02*
X52067000Y-177413000D01*
X52067000Y-177667000D01*
X52047000Y-177667000D01*
X52047000Y-177687000D01*
X51793000Y-177687000D01*
X51793000Y-177667000D01*
X51773000Y-177667000D01*
X51773000Y-177413000D01*
X51793000Y-177413000D01*
X51793000Y-177393000D01*
X52047000Y-177393000D01*
X52047000Y-177413000D01*
X52047000Y-177413000D01*
G37*
X52047000Y-177413000D02*
X52067000Y-177413000D01*
X52067000Y-177667000D01*
X52047000Y-177667000D01*
X52047000Y-177687000D01*
X51793000Y-177687000D01*
X51793000Y-177667000D01*
X51773000Y-177667000D01*
X51773000Y-177413000D01*
X51793000Y-177413000D01*
X51793000Y-177393000D01*
X52047000Y-177393000D01*
X52047000Y-177413000D01*
M02*
