M48
;DRILL file {KiCad 4.0.2-4+6225~38~ubuntu14.04.1-stable} date Tue 29 Mar 2016 09:48:54 BST
;FORMAT={-:-/ absolute / metric / decimal}
FMAT,2
METRIC,TZ
T1C0.400
T2C0.800
T3C1.000
T4C1.016
T5C1.500
T6C2.000
%
G90
G05
M71
T1
X48.25Y-160.
X48.25Y-164.
X52.5Y-156.75
X55.Y-143.75
X56.25Y-156.75
X57.Y-169.5
X60.25Y-143.75
X60.5Y-157.75
X63.5Y-160.
X64.75Y-160.
X65.25Y-169.5
X66.Y-170.25
X66.75Y-168.5
X67.5Y-160.
X67.75Y-168.5
X68.25Y-171.25
X69.25Y-168.25
X70.Y-171.25
X73.Y-161.25
X73.Y-164.75
X73.25Y-167.5
X78.75Y-148.5
X80.75Y-160.
X82.Y-168.75
X83.Y-157.5
X83.75Y-158.25
X85.Y-163.25
X90.75Y-164.
T2
X48.25Y-178.5
X51.Y-164.
X57.Y-162.
X60.Y-150.75
X63.15Y-162.9
X66.25Y-163.75
X72.25Y-145.75
X74.75Y-157.
X75.25Y-161.5
X83.Y-155.
X87.Y-146.
X90.5Y-144.
X103.25Y-148.75
T3
X40.Y-156.
X40.Y-158.54
X40.Y-161.08
X40.Y-163.62
X40.Y-166.16
X40.Y-168.7
X55.Y-136.5
X55.Y-139.5
X71.92Y-133.
X74.46Y-133.
X77.Y-133.
T4
X51.92Y-175.
X51.92Y-177.54
X54.46Y-175.
X54.46Y-177.54
X57.Y-175.
X57.Y-177.54
X73.46Y-178.
X76.Y-178.
X84.25Y-151.
T6
X46.Y-146.
T5
X41.6Y-145.75G85X41.6Y-146.25
G05
T0
M30
