G04 #@! TF.FileFunction,Paste,Top*
%FSLAX46Y46*%
G04 Gerber Fmt 4.6, Leading zero omitted, Abs format (unit mm)*
G04 Created by KiCad (PCBNEW 4.0.2-4+6225~38~ubuntu14.04.1-stable) date Tue 29 Mar 2016 09:48:56 BST*
%MOMM*%
G01*
G04 APERTURE LIST*
%ADD10C,0.100000*%
%ADD11R,3.000000X1.200000*%
%ADD12R,0.750000X0.800000*%
%ADD13R,1.600200X2.199640*%
%ADD14R,0.800000X0.750000*%
%ADD15R,1.250000X1.000000*%
%ADD16R,0.700000X0.600000*%
%ADD17R,1.600000X0.550000*%
%ADD18R,0.550000X1.600000*%
%ADD19R,1.000000X2.000000*%
%ADD20R,0.800000X1.500000*%
%ADD21R,1.200000X3.790000*%
%ADD22R,1.450000X1.400000*%
%ADD23R,1.000000X0.600000*%
%ADD24R,0.950000X0.850000*%
%ADD25R,0.800100X0.800100*%
%ADD26R,0.500000X0.900000*%
%ADD27R,0.900000X0.500000*%
%ADD28R,3.100000X1.000000*%
%ADD29R,2.032000X3.657600*%
%ADD30R,2.032000X1.016000*%
%ADD31R,3.657600X2.032000*%
%ADD32R,1.016000X2.032000*%
%ADD33R,2.500000X3.500000*%
%ADD34R,1.500000X0.600000*%
G04 APERTURE END LIST*
D10*
D11*
X106500000Y-163000000D03*
X106500000Y-161000000D03*
X106500000Y-159000000D03*
X106500000Y-157000000D03*
X106500000Y-155000000D03*
X106500000Y-153000000D03*
X106500000Y-151000000D03*
X106500000Y-149000000D03*
X87800000Y-149000000D03*
X87800000Y-151000000D03*
X87800000Y-153000000D03*
X87800000Y-155000000D03*
X87800000Y-157000000D03*
X87800000Y-159000000D03*
X87800000Y-161000000D03*
X87800000Y-163000000D03*
D12*
X68000000Y-141250000D03*
X68000000Y-142750000D03*
D13*
X73000000Y-139498860D03*
X73000000Y-142501140D03*
D14*
X51500000Y-169500000D03*
X53000000Y-169500000D03*
D15*
X63000000Y-151000000D03*
X63000000Y-149000000D03*
D16*
X63000000Y-142700000D03*
X63000000Y-141300000D03*
D17*
X60750000Y-159200000D03*
X60750000Y-160000000D03*
X60750000Y-160800000D03*
X60750000Y-161600000D03*
X60750000Y-162400000D03*
X60750000Y-163200000D03*
X60750000Y-164000000D03*
X60750000Y-164800000D03*
D18*
X62200000Y-166250000D03*
X63000000Y-166250000D03*
X63800000Y-166250000D03*
X64600000Y-166250000D03*
X65400000Y-166250000D03*
X66200000Y-166250000D03*
X67000000Y-166250000D03*
X67800000Y-166250000D03*
D17*
X69250000Y-164800000D03*
X69250000Y-164000000D03*
X69250000Y-163200000D03*
X69250000Y-162400000D03*
X69250000Y-161600000D03*
X69250000Y-160800000D03*
X69250000Y-160000000D03*
X69250000Y-159200000D03*
D18*
X67800000Y-157750000D03*
X67000000Y-157750000D03*
X66200000Y-157750000D03*
X65400000Y-157750000D03*
X64600000Y-157750000D03*
X63800000Y-157750000D03*
X63000000Y-157750000D03*
X62200000Y-157750000D03*
D19*
X75985000Y-173316000D03*
X77255000Y-173316000D03*
X72429000Y-173316000D03*
X73699000Y-173316000D03*
D20*
X92850000Y-139000000D03*
X91750000Y-139000000D03*
X90650000Y-139000000D03*
X89550000Y-139000000D03*
X88450000Y-139000000D03*
X87350000Y-139000000D03*
X86250000Y-139000000D03*
X85150000Y-139000000D03*
D21*
X94400000Y-136520000D03*
D22*
X83525000Y-137275000D03*
D23*
X83300000Y-136025000D03*
D24*
X84225000Y-135050000D03*
D25*
X77000760Y-168950000D03*
X77000760Y-167050000D03*
X75001780Y-168000000D03*
X77050000Y-157000760D03*
X78950000Y-157000760D03*
X78000000Y-155001780D03*
D26*
X53000000Y-167000000D03*
X51500000Y-167000000D03*
D27*
X75000000Y-163250000D03*
X75000000Y-164750000D03*
D26*
X77250000Y-160000000D03*
X78750000Y-160000000D03*
X76250000Y-139000000D03*
X77750000Y-139000000D03*
D27*
X63000000Y-145250000D03*
X63000000Y-146750000D03*
D28*
X54450000Y-164000000D03*
X45550000Y-164000000D03*
X45550000Y-160000000D03*
X54450000Y-160000000D03*
X92450000Y-178000000D03*
X83550000Y-178000000D03*
X83550000Y-174000000D03*
X92450000Y-174000000D03*
D29*
X75302000Y-149000000D03*
D30*
X68698000Y-149000000D03*
X68698000Y-151286000D03*
X68698000Y-146714000D03*
D31*
X57000000Y-153302000D03*
D32*
X57000000Y-146698000D03*
X54714000Y-146698000D03*
X59286000Y-146698000D03*
D33*
X47500000Y-150900000D03*
X41500000Y-150900000D03*
X47500000Y-141100000D03*
X41500000Y-141100000D03*
D34*
X59350000Y-166700000D03*
X59350000Y-167900000D03*
X59350000Y-169100000D03*
M02*
