<?xml version="1.0" encoding="UTF-8" standalone="no"?>
<!-- Created with Inkscape (http://www.inkscape.org/) -->

<svg
   xmlns:dc="http://purl.org/dc/elements/1.1/"
   xmlns:cc="http://creativecommons.org/ns#"
   xmlns:rdf="http://www.w3.org/1999/02/22-rdf-syntax-ns#"
   xmlns:svg="http://www.w3.org/2000/svg"
   xmlns="http://www.w3.org/2000/svg"
   xmlns:sodipodi="http://sodipodi.sourceforge.net/DTD/sodipodi-0.dtd"
   xmlns:inkscape="http://www.inkscape.org/namespaces/inkscape"
   id="svg2"
   version="1.1"
   inkscape:version="0.48.4 r9939"
   width="2978.75"
   height="2106.25"
   xml:space="preserve"
   sodipodi:docname="made-invaders - back.pdf"><metadata
     id="metadata8"><rdf:RDF><cc:Work
         rdf:about=""><dc:format>image/svg+xml</dc:format><dc:type
           rdf:resource="http://purl.org/dc/dcmitype/StillImage" /><dc:title></dc:title></cc:Work></rdf:RDF></metadata><defs
     id="defs6"><clipPath
       clipPathUnits="userSpaceOnUse"
       id="clipPath16"><path
         d="m 0,0 2383,0 0,1683 L 0,1683 0,0 z"
         id="path18" /></clipPath></defs><sodipodi:namedview
     pagecolor="#ffffff"
     bordercolor="#666666"
     borderopacity="1"
     objecttolerance="10"
     gridtolerance="10"
     guidetolerance="10"
     inkscape:pageopacity="0"
     inkscape:pageshadow="2"
     inkscape:window-width="1366"
     inkscape:window-height="702"
     id="namedview4"
     showgrid="false"
     inkscape:zoom="0.23881306"
     inkscape:cx="1489.375"
     inkscape:cy="1053.125"
     inkscape:window-x="0"
     inkscape:window-y="27"
     inkscape:window-maximized="1"
     inkscape:current-layer="g10" /><g
     id="g10"
     inkscape:groupmode="layer"
     inkscape:label="made-invaders - back"
     transform="matrix(1.25,0,0,-1.25,0,2106.25)"><path
       d="m 1230.7374,330.16635 -42.0603,0 c -2.5037,-4.15485 -7.9015,-5.49338 -12.0564,-2.98969 -1.2251,0.73826 -2.2514,1.76456 -2.9897,2.98969 l -42.0603,0 0,9.06667 42.0603,0 c 2.5037,4.15485 7.9015,5.49337 12.0564,2.98968 1.2251,-0.73826 2.2514,-1.76455 2.9897,-2.98968 l 42.0603,0 z"
       style="fill:none;stroke:#0000ff;stroke-width:1.13385796999999999;stroke-linecap:round;stroke-linejoin:round;stroke-miterlimit:10;stroke-opacity:1;stroke-dasharray:none"
       id="path20"
       inkscape:connector-curvature="0"
       sodipodi:nodetypes="ccccccccccc" /><path
       d="m 326.62071,327.17666 c -1.22513,0.73826 -2.25142,1.76456 -2.98968,2.98969 l -42.06032,0 0,9.06667 42.06032,0 c 2.50369,4.15485 7.9015,5.49337 12.05635,2.98968 1.22513,-0.73826 2.25143,-1.76455 2.98969,-2.98968 l 42.06031,0 0,-9.06667 -42.06031,0 c -2.50369,-4.15485 -7.90151,-5.49338 -12.05636,-2.98969 z"
       style="fill:none;stroke:#0000ff;stroke-width:1.13385796999999999;stroke-linecap:round;stroke-linejoin:round;stroke-miterlimit:10;stroke-opacity:1;stroke-dasharray:none"
       id="path40"
       inkscape:connector-curvature="0"
       sodipodi:nodetypes="sccccsccccs" /><path
       d="m 751.62072,327.17666 c -1.22514,0.73826 -2.25143,1.76456 -2.98969,2.98969 l -42.06031,0 0,9.06667 42.06031,0 c 2.50369,4.15485 7.9015,5.49337 12.05635,2.98968 1.22513,-0.73826 2.25143,-1.76455 2.98969,-2.98968 l 42.06031,0 0,-9.06667 -42.06031,0 c -2.50369,-4.15485 -7.90151,-5.49338 -12.05635,-2.98969 z"
       style="fill:none;stroke:#0000ff;stroke-width:1.13385796999999999;stroke-linecap:round;stroke-linejoin:round;stroke-miterlimit:10;stroke-opacity:1;stroke-dasharray:none"
       id="path64"
       inkscape:connector-curvature="0"
       sodipodi:nodetypes="sccccsccccs" /><path
       d="m 1981.5707,339.23302 42.0603,0 c 2.5037,4.15485 7.9015,5.49337 12.0564,2.98968 1.2251,-0.73826 2.2514,-1.76455 2.9897,-2.98968 l 42.0603,0 0,-9.06667 -42.0603,0 c -2.5037,-4.15485 -7.9015,-5.49338 -12.0564,-2.98969 -1.2251,0.73826 -2.2514,1.76456 -2.9897,2.98969 l -42.0603,0 z"
       style="fill:none;stroke:#0000ff;stroke-width:1.13385796999999999;stroke-linecap:round;stroke-linejoin:round;stroke-miterlimit:10;stroke-opacity:1;stroke-dasharray:none"
       id="path72"
       inkscape:connector-curvature="0"
       sodipodi:nodetypes="ccccccccccc" /><path
       d="m 1655.7374,330.16635 -42.0603,0 c -2.5037,-4.15485 -7.9015,-5.49338 -12.0564,-2.98969 -1.2251,0.73826 -2.2514,1.76456 -2.9897,2.98969 l -42.0603,0 0,9.06667 42.0603,0 c 2.5037,4.15485 7.9015,5.49337 12.0564,2.98968 1.2251,-0.73826 2.2514,-1.76455 2.9897,-2.98968 l 42.0603,0 z"
       style="fill:none;stroke:#0000ff;stroke-width:1.13385796999999999;stroke-linecap:round;stroke-linejoin:round;stroke-miterlimit:10;stroke-opacity:1;stroke-dasharray:none"
       id="path80"
       inkscape:connector-curvature="0"
       sodipodi:nodetypes="ccccccccccc" /><path
       d="m 1769.0707,1321.833 0,-9.0666 99.1667,0 0,9.0666 z"
       style="fill:none;stroke:#0000ff;stroke-width:1.13385796999999999;stroke-linecap:round;stroke-linejoin:round;stroke-miterlimit:10;stroke-opacity:1;stroke-dasharray:none"
       id="path98"
       inkscape:connector-curvature="0"
       sodipodi:nodetypes="ccccc" /><path
       d="m 1443.2374,1312.7664 -99.1667,0 0,9.0666 99.1667,0 z"
       style="fill:none;stroke:#0000ff;stroke-width:1.13385796999999999;stroke-linecap:round;stroke-linejoin:round;stroke-miterlimit:10;stroke-opacity:1;stroke-dasharray:none"
       id="path102"
       inkscape:connector-curvature="0"
       sodipodi:nodetypes="ccccc" /><path
       d="m 919.07072,1321.833 0,-9.0666 99.16668,0 0,9.0666 z"
       style="fill:none;stroke:#0000ff;stroke-width:1.13385796999999999;stroke-linecap:round;stroke-linejoin:round;stroke-miterlimit:10;stroke-opacity:1;stroke-dasharray:none"
       id="path110"
       inkscape:connector-curvature="0"
       sodipodi:nodetypes="ccccc" /><path
       d="m 593.23738,1312.7664 -99.16667,0 0,9.0666 99.16667,0 z"
       style="fill:none;stroke:#0000ff;stroke-width:1.13385796999999999;stroke-linecap:round;stroke-linejoin:round;stroke-miterlimit:10;stroke-opacity:1;stroke-dasharray:none"
       id="path118"
       inkscape:connector-curvature="0"
       sodipodi:nodetypes="ccccc" /><path
       d="m 494.07071,339.23302 99.16667,0 0,-9.06667 -99.16667,0 z"
       style="fill:none;stroke:#0000ff;stroke-width:1.13385796999999999;stroke-linecap:round;stroke-linejoin:round;stroke-miterlimit:10;stroke-opacity:1;stroke-dasharray:none"
       id="path128"
       inkscape:connector-curvature="0"
       sodipodi:nodetypes="ccccc" /><path
       d="m 919.07072,339.23302 99.16668,0 0,-9.06667 -99.16668,0 z"
       style="fill:none;stroke:#0000ff;stroke-width:1.13385796999999999;stroke-linecap:round;stroke-linejoin:round;stroke-miterlimit:10;stroke-opacity:1;stroke-dasharray:none"
       id="path136"
       inkscape:connector-curvature="0"
       sodipodi:nodetypes="ccccc" /><path
       d="m 1443.2374,330.16635 0,9.06667 -99.1667,0 0,-9.06667 z"
       style="fill:none;stroke:#0000ff;stroke-width:1.13385796999999999;stroke-linecap:round;stroke-linejoin:round;stroke-miterlimit:10;stroke-opacity:1;stroke-dasharray:none"
       id="path142"
       inkscape:connector-curvature="0"
       sodipodi:nodetypes="ccccc" /><path
       d="m 1868.2374,339.23302 0,-9.06667 -99.1667,0 0,9.06667 z"
       style="fill:none;stroke:#0000ff;stroke-width:1.13385796999999999;stroke-linecap:round;stroke-linejoin:round;stroke-miterlimit:10;stroke-opacity:1;stroke-dasharray:none"
       id="path150"
       inkscape:connector-curvature="0"
       sodipodi:nodetypes="ccccc" /><path
       d="m 1422.554,372.66635 9.0667,0 0,113.33333 -9.0667,0 z"
       style="fill:none;stroke:#0000ff;stroke-width:1.13385796999999999;stroke-linecap:round;stroke-linejoin:round;stroke-miterlimit:10;stroke-opacity:1;stroke-dasharray:none"
       id="path156"
       inkscape:connector-curvature="0"
       sodipodi:nodetypes="ccccc" /><path
       d="m 1422.554,570.99968 9.0667,0 0,113.33334 -9.0667,0 z"
       style="fill:none;stroke:#0000ff;stroke-width:1.13385796999999999;stroke-linecap:round;stroke-linejoin:round;stroke-miterlimit:10;stroke-opacity:1;stroke-dasharray:none"
       id="path164"
       inkscape:connector-curvature="0"
       sodipodi:nodetypes="ccccc" /><path
       d="m 1431.6207,769.33302 0,113.33333 -9.0667,0 0,-113.33333 z"
       style="fill:none;stroke:#0000ff;stroke-width:1.13385796999999999;stroke-linecap:round;stroke-linejoin:round;stroke-miterlimit:10;stroke-opacity:1;stroke-dasharray:none"
       id="path178"
       inkscape:connector-curvature="0"
       sodipodi:nodetypes="ccccc" /><path
       d="m 1431.6207,967.66635 0,113.33335 -9.0667,0 0,-113.33335 z"
       style="fill:none;stroke:#0000ff;stroke-width:1.13385796999999999;stroke-linecap:round;stroke-linejoin:round;stroke-miterlimit:10;stroke-opacity:1;stroke-dasharray:none"
       id="path182"
       inkscape:connector-curvature="0"
       sodipodi:nodetypes="ccccc" /><path
       d="m 1422.554,1165.9997 9.0667,0 0,113.3333 -9.0667,0 z"
       style="fill:none;stroke:#0000ff;stroke-width:1.13385796999999999;stroke-linecap:round;stroke-linejoin:round;stroke-miterlimit:10;stroke-opacity:1;stroke-dasharray:none"
       id="path188"
       inkscape:connector-curvature="0"
       sodipodi:nodetypes="ccccc" /><path
       d="m 1188.6771,1312.7664 c -0.7383,-1.2252 -1.7646,-2.2515 -2.9897,-2.9897 -4.1549,-2.5037 -9.5527,-1.1652 -12.0564,2.9897 l -42.0603,0 0,9.0666 42.0603,0 c 0.7383,1.2252 1.7646,2.2514 2.9897,2.9897 4.1549,2.5037 9.5527,1.1652 12.0564,-2.9897 l 42.0603,0 0,-9.0666 z"
       style="fill:none;stroke:#0000ff;stroke-width:1.13385796999999999;stroke-linecap:round;stroke-linejoin:round;stroke-miterlimit:10;stroke-opacity:1;stroke-dasharray:none"
       id="path200"
       inkscape:connector-curvature="0"
       sodipodi:nodetypes="ccccccccccc" /><path
       d="m 1655.7374,1312.7664 -42.0603,0 c -0.7383,-1.2252 -1.7646,-2.2515 -2.9897,-2.9897 -4.1549,-2.5037 -9.5527,-1.1652 -12.0564,2.9897 l -42.0603,0 0,9.0666 42.0603,0 c 0.7383,1.2252 1.7646,2.2514 2.9897,2.9897 4.1549,2.5037 9.5527,1.1652 12.0564,-2.9897 l 42.0603,0 z"
       style="fill:none;stroke:#0000ff;stroke-width:1.13385796999999999;stroke-linecap:round;stroke-linejoin:round;stroke-miterlimit:10;stroke-opacity:1;stroke-dasharray:none"
       id="path220"
       inkscape:connector-curvature="0"
       sodipodi:nodetypes="ccccccccccc" /><path
       d="m 2177.354,636.44968 0,47.88334 -9.0666,0 0,85 9.0666,0 0,113.33333 -9.0666,0 0,85 9.0666,0 0,47.88335 -17.5666,0 0,-5.3833 -14.1667,0 0,5.3833 -2.2667,0 0,17.5667 2.2667,0 0,5.3833 14.1667,0 0,-5.3833 17.5666,0 0,47.8833 -9.0666,0 0,85 9.0666,0 0,113.3333 -9.0666,0 0,60.6334 -1974.26669,0 0,-123.5334 c 39.12017,0 70.83334,-31.7131 70.83334,-70.8333 l 0,-639.20002 c 0,-39.12017 -31.71317,-70.83333 -70.83334,-70.83333 l 0,-123.53333 1974.26669,0 0,60.63333 9.0666,0 0,113.33333 -9.0666,0 0,85 9.0666,0 0,47.88334 -17.5666,0 0,-5.38334 -14.1667,0 0,5.38334 -2.2667,0 0,17.56666 2.2667,0 0,5.38334 14.1667,0 0,-5.38334 z"
       style="fill:none;stroke:#ff0000;stroke-width:1.13385796999999999;stroke-linecap:round;stroke-linejoin:round;stroke-miterlimit:10;stroke-opacity:1;stroke-dasharray:none"
       id="path284"
       inkscape:connector-curvature="0"
       sodipodi:nodetypes="ccccccccccccccccccccccccccccccccccccccccccccccccccccc" /><path
       d="m 805.73738,1321.833 -42.06031,0 c -2.50369,4.1549 -7.90151,5.4934 -12.05635,2.9897 -1.22514,-0.7383 -2.25143,-1.7645 -2.98969,-2.9897 l -42.06031,0 0,-9.0666 42.06031,0 c 2.50369,-4.1549 7.9015,-5.4934 12.05635,-2.9897 1.22513,0.7382 2.25143,1.7645 2.98969,2.9897 l 42.06031,0 z"
       style="fill:none;stroke:#0000ff;stroke-width:1.13385796999999999;stroke-linecap:round;stroke-linejoin:round;stroke-miterlimit:10;stroke-opacity:1;stroke-dasharray:none"
       id="path328"
       inkscape:connector-curvature="0"
       sodipodi:nodetypes="ccccccccccc" /><path
       d="m 380.73738,1321.833 -42.06031,0 c -2.50369,4.1549 -7.90151,5.4934 -12.05636,2.9897 -1.22513,-0.7383 -2.25142,-1.7645 -2.98968,-2.9897 l -42.06032,0 0,-9.0666 42.06032,0 c 2.50369,-4.1549 7.9015,-5.4934 12.05635,-2.9897 1.22513,0.7382 2.25143,1.7645 2.98969,2.9897 l 42.06031,0 z"
       style="fill:none;stroke:#0000ff;stroke-width:1.13385796999999999;stroke-linecap:round;stroke-linejoin:round;stroke-miterlimit:10;stroke-opacity:1;stroke-dasharray:none"
       id="path344"
       inkscape:connector-curvature="0"
       sodipodi:nodetypes="ccccccccccc" /><path
       d="m 2080.7374,1312.7664 0,9.0666 -42.0603,0 c -2.5037,4.1549 -7.9015,5.4934 -12.0564,2.9897 -1.2251,-0.7383 -2.2514,-1.7645 -2.9897,-2.9897 l -42.0603,0 0,-9.0666 42.0603,0 c 2.5037,-4.1549 7.9015,-5.4934 12.0564,-2.9897 1.2251,0.7382 2.2514,1.7645 2.9897,2.9897 z"
       style="fill:none;stroke:#0000ff;stroke-width:1.13385796999999999;stroke-linecap:round;stroke-linejoin:round;stroke-miterlimit:10;stroke-opacity:1;stroke-dasharray:none"
       id="path352"
       inkscape:connector-curvature="0"
       sodipodi:nodetypes="ccccccccccc" /></g></svg>