<?xml version="1.0" encoding="UTF-8" standalone="no"?>
<!-- Created with Inkscape (http://www.inkscape.org/) -->

<svg
   xmlns:dc="http://purl.org/dc/elements/1.1/"
   xmlns:cc="http://creativecommons.org/ns#"
   xmlns:rdf="http://www.w3.org/1999/02/22-rdf-syntax-ns#"
   xmlns:svg="http://www.w3.org/2000/svg"
   xmlns="http://www.w3.org/2000/svg"
   xmlns:sodipodi="http://sodipodi.sourceforge.net/DTD/sodipodi-0.dtd"
   xmlns:inkscape="http://www.inkscape.org/namespaces/inkscape"
   id="svg2"
   version="1.1"
   inkscape:version="0.48.4 r9939"
   width="2978.75"
   height="2106.25"
   xml:space="preserve"
   sodipodi:docname="made-invaders - rfid cover.pdf"><metadata
     id="metadata8"><rdf:RDF><cc:Work
         rdf:about=""><dc:format>image/svg+xml</dc:format><dc:type
           rdf:resource="http://purl.org/dc/dcmitype/StillImage" /><dc:title></dc:title></cc:Work></rdf:RDF></metadata><defs
     id="defs6"><clipPath
       clipPathUnits="userSpaceOnUse"
       id="clipPath16"><path
         d="m 0,0 2383,0 0,1683 L 0,1683 0,0 z"
         id="path18" /></clipPath></defs><sodipodi:namedview
     pagecolor="#ffffff"
     bordercolor="#666666"
     borderopacity="1"
     objecttolerance="10"
     gridtolerance="10"
     guidetolerance="10"
     inkscape:pageopacity="0"
     inkscape:pageshadow="2"
     inkscape:window-width="1366"
     inkscape:window-height="702"
     id="namedview4"
     showgrid="false"
     inkscape:zoom="1.1109026"
     inkscape:cx="188.43319"
     inkscape:cy="238.41928"
     inkscape:window-x="0"
     inkscape:window-y="27"
     inkscape:window-maximized="1"
     inkscape:current-layer="g10" /><g
     id="g10"
     inkscape:groupmode="layer"
     inkscape:label="made-invaders - rfid cover"
     transform="matrix(1.25,0,0,-1.25,0,2106.25)"><path
       d="m 153.00224,122.68789 c 3.52081,0 6.375,2.85418 6.375,6.375 0,3.52081 -2.85419,6.375 -6.375,6.375 -3.52082,0 -6.375,-2.85419 -6.375,-6.375 0,-3.52082 2.85418,-6.375 6.375,-6.375 z"
       style="fill:none;stroke:#0000ff;stroke-width:1.13385796999999999;stroke-linecap:round;stroke-linejoin:round;stroke-miterlimit:10;stroke-opacity:1;stroke-dasharray:none"
       id="path20"
       inkscape:connector-curvature="0"
       sodipodi:nodetypes="ssscs" /><path
       d="m 269.1689,247.35455 c 3.52082,0 6.375,2.85419 6.375,6.375 0,3.52082 -2.85418,6.375 -6.375,6.375 -3.52081,0 -6.375,-2.85418 -6.375,-6.375 0,-3.52081 2.85419,-6.375 6.375,-6.375 z"
       style="fill:none;stroke:#0000ff;stroke-width:1.13385796999999999;stroke-linecap:round;stroke-linejoin:round;stroke-miterlimit:10;stroke-opacity:1;stroke-dasharray:none"
       id="path22"
       inkscape:connector-curvature="0"
       sodipodi:nodetypes="ssscs" /><path
       d="m 153.00224,247.35455 c 3.52081,0 6.375,2.85419 6.375,6.375 0,3.52082 -2.85419,6.375 -6.375,6.375 -3.52082,0 -6.375,-2.85418 -6.375,-6.375 0,-3.52081 2.85418,-6.375 6.375,-6.375 z"
       style="fill:none;stroke:#0000ff;stroke-width:1.13385796999999999;stroke-linecap:round;stroke-linejoin:round;stroke-miterlimit:10;stroke-opacity:1;stroke-dasharray:none"
       id="path24"
       inkscape:connector-curvature="0"
       sodipodi:nodetypes="ssscs" /><path
       d="m 269.1689,122.68789 c 3.52082,0 6.375,2.85418 6.375,6.375 0,3.52081 -2.85418,6.375 -6.375,6.375 -3.52081,0 -6.375,-2.85419 -6.375,-6.375 0,-3.52082 2.85419,-6.375 6.375,-6.375 z"
       style="fill:none;stroke:#0000ff;stroke-width:1.13385796999999999;stroke-linecap:round;stroke-linejoin:round;stroke-miterlimit:10;stroke-opacity:1;stroke-dasharray:none"
       id="path28"
       inkscape:connector-curvature="0"
       sodipodi:nodetypes="ssscs" /><path
       d="m 296.08557,63.896219 -170,0 -42.5,42.500001 0,170 42.5,42.5 170,0 42.5,-42.5 0,-170 z"
       style="fill:none;stroke:#ff0000;stroke-width:1.13385796999999999;stroke-linecap:round;stroke-linejoin:round;stroke-miterlimit:10;stroke-opacity:1;stroke-dasharray:none"
       id="path34"
       inkscape:connector-curvature="0"
       sodipodi:nodetypes="ccccccccc" /><path
       d="m 226.57226,151.93604 c -2.53472,1.777 -2.2808,4.765 0.99216,11.683 8.23096,17.379 8.23096,38.387 0,55.766 -3.31984,7.02 -3.54608,9.98 -0.88976,11.719 9.35896,6.133 19.82776,-31.77 15.02256,-54.403 -2.27256,-10.703 -8.29288,-25.199 -10.46864,-25.199 -0.39424,0 -1.1992,-0.183 -1.78912,-0.41 -0.58904,-0.227 -1.87888,0.152 -2.8672,0.844 z m -16.0308,8.527 c -1.48792,1.488 -1.14808,4.492 1.0308,9.102 6.48128,13.691 6.6332,29.285 0.42616,42.55 -3.75,8.016 -3.102,11.387 2.19496,11.387 5.2192,0 11.38704,-17.332 11.38704,-32 0,-18.941 -8.85896,-37.222 -15.03896,-31.039 z m -14.34424,7.207 c -2.9648,1.43 -2.984,3.555 -0.1008,9.715 3.968,8.484 3.97192,19.773 0.008,28.234 -4.64496,9.907 2.20312,15.551 7.29296,6.012 6.94488,-13.008 5.12808,-44.129 -2.57896,-44.129 -0.38584,0 -1.1832,-0.156 -1.76904,-0.347 -0.586,-0.188 -1.8668,0.043 -2.84816,0.515 z m -16.02256,8.621 c -1.3992,2.239 -1.27032,3.215 1.1008,8.395 2.44208,5.336 2.332,9.574 -0.38992,14.797 -2.08592,4.004 -2.14488,5.773 -0.24216,7.496 9.33904,8.449 15.96016,-20.465 6.9172,-30.219 -2.33512,-2.523 -5.96016,-2.75 -7.38592,-0.469 z"
       style="fill:none;stroke:#00ff00;stroke-width:1"
       id="path24-5"
       inkscape:connector-curvature="0" /></g></svg>