<?xml version="1.0" encoding="UTF-8" standalone="no"?>
<!-- Created with Inkscape (http://www.inkscape.org/) -->

<svg
   xmlns:dc="http://purl.org/dc/elements/1.1/"
   xmlns:cc="http://creativecommons.org/ns#"
   xmlns:rdf="http://www.w3.org/1999/02/22-rdf-syntax-ns#"
   xmlns:svg="http://www.w3.org/2000/svg"
   xmlns="http://www.w3.org/2000/svg"
   xmlns:sodipodi="http://sodipodi.sourceforge.net/DTD/sodipodi-0.dtd"
   xmlns:inkscape="http://www.inkscape.org/namespaces/inkscape"
   id="svg2"
   version="1.1"
   inkscape:version="0.48.4 r9939"
   width="2978.75"
   height="2106.25"
   xml:space="preserve"
   sodipodi:docname="made-invaders - power case.pdf"><metadata
     id="metadata8"><rdf:RDF><cc:Work
         rdf:about=""><dc:format>image/svg+xml</dc:format><dc:type
           rdf:resource="http://purl.org/dc/dcmitype/StillImage" /><dc:title></dc:title></cc:Work></rdf:RDF></metadata><defs
     id="defs6"><clipPath
       clipPathUnits="userSpaceOnUse"
       id="clipPath16"><path
         d="m 0,0 2383,0 0,1683 L 0,1683 0,0 z"
         id="path18" /></clipPath></defs><sodipodi:namedview
     pagecolor="#ffffff"
     bordercolor="#666666"
     borderopacity="1"
     objecttolerance="10"
     gridtolerance="10"
     guidetolerance="10"
     inkscape:pageopacity="0"
     inkscape:pageshadow="2"
     inkscape:window-width="1920"
     inkscape:window-height="1018"
     id="namedview4"
     showgrid="false"
     inkscape:zoom="0.53727526"
     inkscape:cx="1176.2107"
     inkscape:cy="891.12683"
     inkscape:window-x="0"
     inkscape:window-y="27"
     inkscape:window-maximized="1"
     inkscape:current-layer="g10" /><g
     id="g10"
     inkscape:groupmode="layer"
     inkscape:label="made-invaders - power case"
     transform="matrix(1.25,0,0,-1.25,0,2106.25)"><path
       d="m 125.56376,240.62086 0,49.14365 c 1.22513,0.73826 2.25143,1.76455 2.98969,2.98968 2.50369,4.15485 1.16516,9.55267 -2.98969,12.05636 l 0,49.14364 -9.06666,0 0,-49.14364 c -1.22514,-0.73826 -2.25143,-1.76456 -2.98969,-2.98969 -2.50369,-4.15485 -1.16516,-9.55266 2.98969,-12.05635 l 0,-49.14365 z"
       style="fill:none;stroke:#0000ff;stroke-width:1.13385796999999999;stroke-linecap:round;stroke-linejoin:round;stroke-miterlimit:10;stroke-opacity:1;stroke-dasharray:none"
       id="path28"
       inkscape:connector-curvature="0"
       sodipodi:nodetypes="ccsccccsccc" /><path
       d="m 116.4971,899.81055 c -1.22514,-0.73826 -2.25143,-1.76456 -2.98969,-2.98969 -2.50369,-4.15485 -1.16516,-9.55266 2.98969,-12.05635 l 0,-49.14365 9.06666,0 0,49.14365 c 1.22513,0.73826 2.25143,1.76455 2.98969,2.98968 2.50369,4.15485 1.16516,9.55267 -2.98969,12.05636 l 0,49.14364 -9.06666,0 z"
       style="fill:none;stroke:#0000ff;stroke-width:1.13385796999999999;stroke-linecap:round;stroke-linejoin:round;stroke-miterlimit:10;stroke-opacity:1;stroke-dasharray:none"
       id="path46"
       inkscape:connector-curvature="0"
       sodipodi:nodetypes="csccccscccc" /><path
       d="m 401.81376,681.2042 c 3.12962,0 5.66667,2.53705 5.66667,5.66666 0,3.12962 -2.53705,5.66667 -5.66667,5.66667 -3.12961,0 -5.66666,-2.53705 -5.66666,-5.66667 0,-3.12961 2.53705,-5.66666 5.66666,-5.66666 z"
       style="fill:none;stroke:#0000ff;stroke-width:1.13385796999999999;stroke-linecap:round;stroke-linejoin:round;stroke-miterlimit:10;stroke-opacity:1;stroke-dasharray:none"
       id="path52"
       inkscape:connector-curvature="0"
       sodipodi:nodetypes="ssscs" /><path
       d="m 260.1471,256.20419 c 3.12961,0 5.66666,2.53706 5.66666,5.66667 0,3.12961 -2.53705,5.66667 -5.66666,5.66667 -3.12962,0 -5.66667,-2.53706 -5.66667,-5.66667 0,-3.12961 2.53705,-5.66667 5.66667,-5.66667 z"
       style="fill:none;stroke:#0000ff;stroke-width:1.13385796999999999;stroke-linecap:round;stroke-linejoin:round;stroke-miterlimit:10;stroke-opacity:1;stroke-dasharray:none"
       id="path54"
       inkscape:connector-curvature="0"
       sodipodi:nodetypes="ssscs" /><path
       d="m 401.81376,256.20419 c 3.12962,0 5.66667,2.53706 5.66667,5.66667 0,3.12961 -2.53705,5.66667 -5.66667,5.66667 -3.12961,0 -5.66666,-2.53706 -5.66666,-5.66667 0,-3.12961 2.53705,-5.66667 5.66666,-5.66667 z"
       style="fill:none;stroke:#0000ff;stroke-width:1.13385796999999999;stroke-linecap:round;stroke-linejoin:round;stroke-miterlimit:10;stroke-opacity:1;stroke-dasharray:none"
       id="path56"
       inkscape:connector-curvature="0"
       sodipodi:nodetypes="ssscs" /><path
       d="m 260.1471,681.2042 c 3.12961,0 5.66666,2.53705 5.66666,5.66666 0,3.12962 -2.53705,5.66667 -5.66666,5.66667 -3.12962,0 -5.66667,-2.53705 -5.66667,-5.66667 0,-3.12961 2.53705,-5.66666 5.66667,-5.66666 z"
       style="fill:none;stroke:#0000ff;stroke-width:1.13385796999999999;stroke-linecap:round;stroke-linejoin:round;stroke-miterlimit:10;stroke-opacity:1;stroke-dasharray:none"
       id="path58"
       inkscape:connector-curvature="0"
       sodipodi:nodetypes="ssscs" /><path
       d="m 536.39709,750.62086 0,-113.33333 9.06667,0 0,113.33333 z"
       style="fill:none;stroke:#0000ff;stroke-width:1.13385796999999999;stroke-linecap:round;stroke-linejoin:round;stroke-miterlimit:10;stroke-opacity:1;stroke-dasharray:none"
       id="path60"
       inkscape:connector-curvature="0"
       sodipodi:nodetypes="ccccc" /><path
       d="m 545.46376,438.95419 0,113.33334 -9.06667,0 0,-113.33334 z"
       style="fill:none;stroke:#0000ff;stroke-width:1.13385796999999999;stroke-linecap:round;stroke-linejoin:round;stroke-miterlimit:10;stroke-opacity:1;stroke-dasharray:none"
       id="path72"
       inkscape:connector-curvature="0"
       sodipodi:nodetypes="ccccc" /><path
       d="m 116.4971,438.95419 0,113.33334 9.06666,0 0,-113.33334 z"
       style="fill:none;stroke:#0000ff;stroke-width:1.13385796999999999;stroke-linecap:round;stroke-linejoin:round;stroke-miterlimit:10;stroke-opacity:1;stroke-dasharray:none"
       id="path82"
       inkscape:connector-curvature="0"
       sodipodi:nodetypes="ccccc" /><path
       d="m 125.56376,637.28753 -9.06666,0 0,113.33333 9.06666,0 z"
       style="fill:none;stroke:#0000ff;stroke-width:1.13385796999999999;stroke-linecap:round;stroke-linejoin:round;stroke-miterlimit:10;stroke-opacity:1;stroke-dasharray:none"
       id="path84"
       inkscape:connector-curvature="0"
       sodipodi:nodetypes="ccccc" /><path
       d="m 559.63043,1057.1875 -14.16667,14.1667 -86.98333,0 0,-9.0667 -85,0 0,9.0667 -85,0 0,-9.0667 -85,0 0,9.0667 -86.98333,0 -14.16667,-14.1667 0,-924.79997 14.16667,-14.16667 86.98333,0 0,9.06667 85,0 0,-9.06667 85,0 0,9.06667 85,0 0,-9.06667 86.98333,0 14.16667,14.16667 z"
       style="fill:none;stroke:#ff0000;stroke-width:1.13385796999999999;stroke-linecap:round;stroke-linejoin:round;stroke-miterlimit:10;stroke-opacity:1;stroke-dasharray:none"
       id="path110"
       inkscape:connector-curvature="0"
       sodipodi:nodetypes="ccccccccccccccccccccccccc" /><path
       d="m 536.39709,353.95419 0,-49.14364 c -4.15484,-2.50369 -5.49337,-7.90151 -2.98968,-12.05636 0.73826,-1.22513 1.76455,-2.25142 2.98968,-2.98968 l 0,-49.14365 9.06667,0 0,49.14365 c 4.15485,2.50369 5.49338,7.9015 2.98969,12.05635 -0.73826,1.22513 -1.76455,2.25143 -2.98969,2.98969 l 0,49.14364 z"
       style="fill:none;stroke:#0000ff;stroke-width:1.13385796999999999;stroke-linecap:round;stroke-linejoin:round;stroke-miterlimit:10;stroke-opacity:1;stroke-dasharray:none"
       id="path146"
       inkscape:connector-curvature="0"
       sodipodi:nodetypes="ccsccccsccc" /><path
       d="m 536.39709,835.62086 0,49.14365 c -1.22513,0.73826 -2.25142,1.76455 -2.98968,2.98968 -2.50369,4.15485 -1.16516,9.55267 2.98968,12.05636 l 0,49.14364 9.06667,0 0,-49.14364 c 1.22514,-0.73826 2.25143,-1.76456 2.98969,-2.98969 2.50369,-4.15485 1.16516,-9.55266 -2.98969,-12.05635 l 0,-49.14365 z"
       style="fill:none;stroke:#0000ff;stroke-width:1.13385796999999999;stroke-linecap:round;stroke-linejoin:round;stroke-miterlimit:10;stroke-opacity:1;stroke-dasharray:none"
       id="path164"
       inkscape:connector-curvature="0"
       sodipodi:nodetypes="ccsccccsccc" /><path
       d="m 866.02782,174.0886 0,99.16667 8.5,0 0,-99.16667 z"
       style="fill:none;stroke:#0000ff;stroke-width:1.13385796999999999;stroke-linecap:round;stroke-linejoin:round;stroke-miterlimit:10;stroke-opacity:1;stroke-dasharray:none"
       id="path178"
       inkscape:connector-curvature="0"
       sodipodi:nodetypes="ccccc" /><path
       d="m 1159.2778,1061.4886 86.9834,0 0,-122.4 -9.0667,0 0,-113.33333 9.0667,0 0,-85 -9.0667,0 0,-113.33334 9.0667,0 0,-85 -9.0667,0 0,-113.33333 9.0667,0 0,-85 -9.0667,0 0,-113.33333 9.0667,0 0,-122.4 -86.9834,0 0,9.06666 -85,0 0,-9.06666 -84.99998,0 0,9.06666 -85,0 0,-9.06666 -86.98333,0 0,122.4 9.06667,0 0,113.33333 -9.06667,0 0,85 9.06667,0 0,113.33333 -9.06667,0 0,85 9.06667,0 0,113.33334 -9.06667,0 0,85 9.06667,0 0,113.33333 -9.06667,0 0,122.4 86.98333,0 0,-9.0667 85,0 0,9.0667 84.99998,0 0,-9.0667 85,0 z"
       style="fill:none;stroke:#ff0000;stroke-width:1.13385796999999999;stroke-linecap:round;stroke-linejoin:round;stroke-miterlimit:10;stroke-opacity:1;stroke-dasharray:none"
       id="path242"
       inkscape:connector-curvature="0"
       sodipodi:nodetypes="ccccccccccccccccccccccccccccccccccccccccccccccccccccc" /><path
       d="m 891.52782,273.25527 0,-99.16667 -8.5,0 0,99.16667 z"
       style="fill:none;stroke:#0000ff;stroke-width:1.13385796999999999;stroke-linecap:round;stroke-linejoin:round;stroke-miterlimit:10;stroke-opacity:1;stroke-dasharray:none"
       id="path288"
       inkscape:connector-curvature="0"
       sodipodi:nodetypes="ccccc" /><path
       d="m 1189.0278,273.25527 8.5,0 0,-99.16667 -8.5,0 z"
       style="fill:none;stroke:#0000ff;stroke-width:1.13385796999999999;stroke-linecap:round;stroke-linejoin:round;stroke-miterlimit:10;stroke-opacity:1;stroke-dasharray:none"
       id="path298"
       inkscape:connector-curvature="0"
       sodipodi:nodetypes="ccccc" /><path
       d="m 1180.5278,174.0886 -8.5,0 0,99.16667 8.5,0 z"
       style="fill:none;stroke:#0000ff;stroke-width:1.13385796999999999;stroke-linecap:round;stroke-linejoin:round;stroke-miterlimit:10;stroke-opacity:1;stroke-dasharray:none"
       id="path306"
       inkscape:connector-curvature="0"
       sodipodi:nodetypes="ccccc" /><path
       d="m 1155.0278,273.25527 8.5,0 0,-99.16667 -8.5,0 z"
       style="fill:none;stroke:#0000ff;stroke-width:1.13385796999999999;stroke-linecap:round;stroke-linejoin:round;stroke-miterlimit:10;stroke-opacity:1;stroke-dasharray:none"
       id="path314"
       inkscape:connector-curvature="0"
       sodipodi:nodetypes="ccccc" /><path
       d="m 1146.5278,273.25527 -8.5,0 0,-99.16667 8.5,0 z"
       style="fill:none;stroke:#0000ff;stroke-width:1.13385796999999999;stroke-linecap:round;stroke-linejoin:round;stroke-miterlimit:10;stroke-opacity:1;stroke-dasharray:none"
       id="path318"
       inkscape:connector-curvature="0"
       sodipodi:nodetypes="ccccc" /><path
       d="m 1129.5278,273.25527 0,-99.16667 -8.5,0 0,99.16667 z"
       style="fill:none;stroke:#0000ff;stroke-width:1.13385796999999999;stroke-linecap:round;stroke-linejoin:round;stroke-miterlimit:10;stroke-opacity:1;stroke-dasharray:none"
       id="path328"
       inkscape:connector-curvature="0"
       sodipodi:nodetypes="ccccc" /><path
       d="m 1112.5278,273.25527 0,-99.16667 -8.5,0 0,99.16667 z"
       style="fill:none;stroke:#0000ff;stroke-width:1.13385796999999999;stroke-linecap:round;stroke-linejoin:round;stroke-miterlimit:10;stroke-opacity:1;stroke-dasharray:none"
       id="path334"
       inkscape:connector-curvature="0"
       sodipodi:nodetypes="ccccc" /><path
       d="m 1095.5278,273.25527 -8.5,0 0,-99.16667 8.5,0 z"
       style="fill:none;stroke:#0000ff;stroke-width:1.13385796999999999;stroke-linecap:round;stroke-linejoin:round;stroke-miterlimit:10;stroke-opacity:1;stroke-dasharray:none"
       id="path344"
       inkscape:connector-curvature="0"
       sodipodi:nodetypes="ccccc" /><path
       d="m 1078.5278,273.25527 -8.5,0 0,-99.16667 8.5,0 z"
       style="fill:none;stroke:#0000ff;stroke-width:1.13385796999999999;stroke-linecap:round;stroke-linejoin:round;stroke-miterlimit:10;stroke-opacity:1;stroke-dasharray:none"
       id="path348"
       inkscape:connector-curvature="0"
       sodipodi:nodetypes="ccccc" /><path
       d="m 1053.0278,174.0886 0,99.16667 8.5,0 0,-99.16667 z"
       style="fill:none;stroke:#0000ff;stroke-width:1.13385796999999999;stroke-linecap:round;stroke-linejoin:round;stroke-miterlimit:10;stroke-opacity:1;stroke-dasharray:none"
       id="path362"
       inkscape:connector-curvature="0"
       sodipodi:nodetypes="ccccc" /><path
       d="m 1044.5278,273.25527 -8.5,0 0,-99.16667 8.5,0 z"
       style="fill:none;stroke:#0000ff;stroke-width:1.13385796999999999;stroke-linecap:round;stroke-linejoin:round;stroke-miterlimit:10;stroke-opacity:1;stroke-dasharray:none"
       id="path364"
       inkscape:connector-curvature="0"
       sodipodi:nodetypes="ccccc" /><path
       d="m 1019.0278,174.0886 0,99.16667 8.5,0 0,-99.16667 z"
       style="fill:none;stroke:#0000ff;stroke-width:1.13385796999999999;stroke-linecap:round;stroke-linejoin:round;stroke-miterlimit:10;stroke-opacity:1;stroke-dasharray:none"
       id="path378"
       inkscape:connector-curvature="0"
       sodipodi:nodetypes="ccccc" /><path
       d="m 1010.5278,174.0886 -8.5,0 0,99.16667 8.5,0 z"
       style="fill:none;stroke:#0000ff;stroke-width:1.13385796999999999;stroke-linecap:round;stroke-linejoin:round;stroke-miterlimit:10;stroke-opacity:1;stroke-dasharray:none"
       id="path386"
       inkscape:connector-curvature="0"
       sodipodi:nodetypes="ccccc" /><path
       d="m 985.02782,273.25527 0,-99.16667 8.5,0 0,99.16667 z"
       style="fill:none;stroke:#0000ff;stroke-width:1.13385796999999999;stroke-linecap:round;stroke-linejoin:round;stroke-miterlimit:10;stroke-opacity:1;stroke-dasharray:none"
       id="path392"
       inkscape:connector-curvature="0"
       sodipodi:nodetypes="ccccc" /><path
       d="m 968.02782,273.25527 0,-99.16667 8.5,0 0,99.16667 z"
       style="fill:none;stroke:#0000ff;stroke-width:1.13385796999999999;stroke-linecap:round;stroke-linejoin:round;stroke-miterlimit:10;stroke-opacity:1;stroke-dasharray:none"
       id="path400"
       inkscape:connector-curvature="0"
       sodipodi:nodetypes="ccccc" /><path
       d="m 959.52782,273.25527 0,-99.16667 -8.5,0 0,99.16667 z"
       style="fill:none;stroke:#0000ff;stroke-width:1.13385796999999999;stroke-linecap:round;stroke-linejoin:round;stroke-miterlimit:10;stroke-opacity:1;stroke-dasharray:none"
       id="path404"
       inkscape:connector-curvature="0"
       sodipodi:nodetypes="ccccc" /><path
       d="m 942.52782,273.25527 -8.5,0 0,-99.16667 8.5,0 z"
       style="fill:none;stroke:#0000ff;stroke-width:1.13385796999999999;stroke-linecap:round;stroke-linejoin:round;stroke-miterlimit:10;stroke-opacity:1;stroke-dasharray:none"
       id="path412"
       inkscape:connector-curvature="0"
       sodipodi:nodetypes="ccccc" /><path
       d="m 917.02782,174.0886 0,99.16667 8.5,0 0,-99.16667 z"
       style="fill:none;stroke:#0000ff;stroke-width:1.13385796999999999;stroke-linecap:round;stroke-linejoin:round;stroke-miterlimit:10;stroke-opacity:1;stroke-dasharray:none"
       id="path426"
       inkscape:connector-curvature="0"
       sodipodi:nodetypes="ccccc" /><path
       d="m 900.02782,273.25527 0,-99.16667 8.5,0 0,99.16667 z"
       style="fill:none;stroke:#0000ff;stroke-width:1.13385796999999999;stroke-linecap:round;stroke-linejoin:round;stroke-miterlimit:10;stroke-opacity:1;stroke-dasharray:none"
       id="path430"
       inkscape:connector-curvature="0"
       sodipodi:nodetypes="ccccc" /><path
       d="m 1048.7778,841.36813 c 9.4445,21.66233 9.4445,46.27861 0,67.94094 z"
       style="fill:none;stroke:#0000ff;stroke-width:1.13385796999999999;stroke-linecap:round;stroke-linejoin:round;stroke-miterlimit:10;stroke-opacity:1;stroke-dasharray:none"
       id="path438"
       inkscape:connector-curvature="0"
       sodipodi:nodetypes="ccc" /><path
       d="m 993.52782,793.41655 c 3.37271,0.93318 6.68458,2.07375 9.91668,3.41519 l 0,157.01372 c -3.2321,1.34144 -6.54397,2.48201 -9.91668,3.41519 z"
       style="fill:none;stroke:#0000ff;stroke-width:1.13385796999999999;stroke-linecap:round;stroke-linejoin:round;stroke-miterlimit:10;stroke-opacity:1;stroke-dasharray:none"
       id="path444"
       inkscape:connector-curvature="0"
       sodipodi:nodetypes="ccccc" /><path
       d="m 1021.8612,943.3386 c -3.1529,2.36468 -6.4665,4.50721 -9.9167,6.41209 l 0,-148.82418 c 3.4502,1.90488 6.7638,4.04741 9.9167,6.41209 z"
       style="fill:none;stroke:#0000ff;stroke-width:1.13385796999999999;stroke-linecap:round;stroke-linejoin:round;stroke-miterlimit:10;stroke-opacity:1;stroke-dasharray:none"
       id="path450"
       inkscape:connector-curvature="0"
       sodipodi:nodetypes="ccccc" /><path
       d="m 1030.3612,814.63646 c 3.6489,3.57666 6.9679,7.47505 9.9166,11.64782 l 0,98.10864 c -2.9487,4.17277 -6.2677,8.07116 -9.9166,11.64782 z"
       style="fill:none;stroke:#0000ff;stroke-width:1.13385796999999999;stroke-linecap:round;stroke-linejoin:round;stroke-miterlimit:10;stroke-opacity:1;stroke-dasharray:none"
       id="path452"
       inkscape:connector-curvature="0"
       sodipodi:nodetypes="ccccc" /><path
       d="m 975.11116,790.44492 c 3.32389,0.1664 6.63515,0.52787 9.91666,1.08255 l 0,167.62226 c -3.28151,0.55468 -6.59277,0.91615 -9.91666,1.08255 z"
       style="fill:none;stroke:#0000ff;stroke-width:1.13385796999999999;stroke-linecap:round;stroke-linejoin:round;stroke-miterlimit:10;stroke-opacity:1;stroke-dasharray:none"
       id="path476"
       inkscape:connector-curvature="0"
       sodipodi:nodetypes="ccccc" /><path
       d="m 966.61116,790.44492 0,169.78736 c -3.3239,-0.1664 -6.63516,-0.52787 -9.91667,-1.08255 l 0,-167.62226 c 3.28151,-0.55468 6.59277,-0.91615 9.91667,-1.08255 z"
       style="fill:none;stroke:#0000ff;stroke-width:1.13385796999999999;stroke-linecap:round;stroke-linejoin:round;stroke-miterlimit:10;stroke-opacity:1;stroke-dasharray:none"
       id="path492"
       inkscape:connector-curvature="0"
       sodipodi:nodetypes="ccccc" /><path
       d="m 938.27782,796.83174 0,157.01372 c 3.2321,1.34144 6.54396,2.48201 9.91667,3.41519 l 0,-163.8441 c -3.37271,0.93318 -6.68457,2.07375 -9.91667,3.41519 z"
       style="fill:none;stroke:#0000ff;stroke-width:1.13385796999999999;stroke-linecap:round;stroke-linejoin:round;stroke-miterlimit:10;stroke-opacity:1;stroke-dasharray:none"
       id="path496"
       inkscape:connector-curvature="0"
       sodipodi:nodetypes="ccccc" /><path
       d="m 929.77782,949.75069 0,-148.82418 c -3.45021,1.90488 -6.76376,4.04741 -9.91666,6.41209 l 0,136 c 3.1529,2.36468 6.46645,4.50721 9.91666,6.41209 z"
       style="fill:none;stroke:#0000ff;stroke-width:1.13385796999999999;stroke-linecap:round;stroke-linejoin:round;stroke-miterlimit:10;stroke-opacity:1;stroke-dasharray:none"
       id="path500"
       inkscape:connector-curvature="0"
       sodipodi:nodetypes="ccccc" /><path
       d="m 901.44449,826.28428 0,98.10864 c 2.94875,4.17277 6.26774,8.07116 9.91667,11.64782 l 0,-121.40428 c -3.64893,3.57666 -6.96792,7.47505 -9.91667,11.64782 z"
       style="fill:none;stroke:#0000ff;stroke-width:1.13385796999999999;stroke-linecap:round;stroke-linejoin:round;stroke-miterlimit:10;stroke-opacity:1;stroke-dasharray:none"
       id="path504"
       inkscape:connector-curvature="0"
       sodipodi:nodetypes="ccccc" /><path
       d="m 892.94449,841.36813 0,67.94094 c -9.44445,-21.66233 -9.44445,-46.27861 0,-67.94094 z"
       style="fill:none;stroke:#0000ff;stroke-width:1.13385796999999999;stroke-linecap:round;stroke-linejoin:round;stroke-miterlimit:10;stroke-opacity:1;stroke-dasharray:none"
       id="path506"
       inkscape:connector-curvature="0"
       sodipodi:nodetypes="ccc" /><path
       d="m 645.08978,274.74865 -14.73333,0 0,5.66667 -17.56667,0 0,-47.88334 9.06667,0 0,-122.39999 35.41666,0 0,9.06666 56.66667,0 0,-9.06666 35.41667,0 0,122.39999 9.06666,0 0,113.33334 -9.06666,0 0,85 9.06666,0 0,113.33333 -9.06666,0 0,85 9.06666,0 0,113.33333 -9.06666,0 0,85 9.06666,0 0,113.33334 -9.06666,0 0,122.39998 -35.41667,0 0,-9.0666 -56.66667,0 0,9.0666 -35.41666,0 0,-122.39998 -9.06667,0 0,-47.88334 17.56667,0 0,5.66667 14.73333,0 0,-5.66667 1.7,0 0,-17.56666 -1.7,0 0,-5.66667 -14.73333,0 0,5.66667 -17.56667,0 0,-47.88334 9.06667,0 0,-85 -9.06667,0 0,-113.33333 9.06667,0 0,-85 -9.06667,0 0,-113.33333 9.06667,0 0,-85 -9.06667,0 0,-47.88334 17.56667,0 0,5.66667 14.73333,0 0,-5.66667 1.7,0 0,-17.56666 -1.7,0 z"
       style="fill:none;stroke:#ff0000;stroke-width:1.13385796999999999;stroke-linecap:round;stroke-linejoin:round;stroke-miterlimit:10;stroke-opacity:1;stroke-dasharray:none"
       id="path622"
       inkscape:connector-curvature="0"
       sodipodi:nodetypes="ccccccccccccccccccccccccccccccccccccccccccccccccccccccccccccccccccccc" /><path
       d="m 1302.8847,932.65099 9.0666,0 0,122.40001 35.4167,0 0,-9.0667 56.6667,0 0,9.0667 35.4166,0 0,-122.40001 9.0667,0 0,-47.88333 -17.5667,0 0,5.66666 -14.7333,0 0,-5.66666 -1.7,0 0,-17.56667 1.7,0 0,-5.66667 14.7333,0 0,5.66667 17.5667,0 0,-47.88333 -9.0667,0 0,-85 9.0667,0 0,-113.33334 -9.0667,0 0,-85 9.0667,0 0,-113.33333 -9.0667,0 0,-85 9.0667,0 0,-47.88333 -17.5667,0 0,5.66666 -14.7333,0 0,-5.66666 -1.7,0 0,-17.56667 1.7,0 0,-5.66667 14.7333,0 0,5.66667 17.5667,0 0,-47.88333 -9.0667,0 0,-122.4 -35.4166,0 0,9.06667 -56.6667,0 0,-9.06667 -35.4167,0 0,122.4 -9.0666,0 0,113.33333 9.0666,0 0,85 -9.0666,0 0,113.33333 9.0666,0 0,85 -9.0666,0 0,113.33334 9.0666,0 0,85 -9.0666,0 z"
       style="fill:none;stroke:#ff0000;stroke-width:1.13385796999999999;stroke-linecap:round;stroke-linejoin:round;stroke-miterlimit:10;stroke-opacity:1;stroke-dasharray:none"
       id="path706"
       inkscape:connector-curvature="0"
       sodipodi:nodetypes="ccccccccccccccccccccccccccccccccccccccccccccccccccccccccccccccccccccc" /><path
       d="m 151.81805,1171.6044 c -6.25923,0 -11.33334,5.0741 -11.33334,11.3333 l 0,5.6667 c 0,6.2592 5.07411,11.3333 11.33334,11.3333 l 147.33333,0 c 6.25923,0 11.33333,-5.0741 11.33333,-11.3333 l 0,-5.6667 c 0,-6.2592 -5.0741,-11.3333 -11.33333,-11.3333 z"
       style="fill:none;stroke:#0000ff;stroke-width:1.13385796999999999;stroke-linecap:round;stroke-linejoin:round;stroke-miterlimit:10;stroke-opacity:1;stroke-dasharray:none"
       id="path794"
       inkscape:connector-curvature="0"
       sodipodi:nodetypes="ccccccccc" /><path
       d="m 360.06805,1225.4377 134.58333,0 0,-79.3333 -134.58333,0 z"
       style="fill:none;stroke:#0000ff;stroke-width:1.13385796999999999;stroke-linecap:round;stroke-linejoin:round;stroke-miterlimit:10;stroke-opacity:1;stroke-dasharray:none"
       id="path798"
       inkscape:connector-curvature="0"
       sodipodi:nodetypes="ccccc" /><path
       d="m 374.23471,1122.0211 -85,0 0,-9.0667 -85,0 0,9.0667 -77.91666,0 0,35.4166 -9.06667,0 0,56.6667 9.06667,0 0,35.4167 77.91666,0 0,9.0666 85,0 0,-9.0666 85,0 0,9.0666 85,0 0,-9.0666 77.91667,0 0,-35.4167 9.06667,0 0,-56.6667 -9.06667,0 0,-35.4166 -77.91667,0 0,-9.0667 -85,0 z"
       style="fill:none;stroke:#ff0000;stroke-width:1.13385796999999999;stroke-linecap:round;stroke-linejoin:round;stroke-miterlimit:10;stroke-opacity:1;stroke-dasharray:none"
       id="path844"
       inkscape:connector-curvature="0"
       sodipodi:nodetypes="ccccccccccccccccccccccccccccc" /><path
       d="m 990.12176,1249.511 0,-9.0667 85.00004,0 0,9.0667 85,0 0,-9.0667 77.9166,0 0,-35.4166 9.0667,0 0,-56.6667 -9.0667,0 0,-35.4167 -77.9166,0 0,-9.0666 -85,0 0,9.0666 -85.00004,0 0,-9.0666 -85,0 0,9.0666 -77.91667,0 0,35.4167 -9.06666,0 0,56.6667 9.06666,0 0,35.4166 77.91667,0 0,9.0667 z"
       style="fill:none;stroke:#ff0000;stroke-width:1.13385796999999999;stroke-linecap:round;stroke-linejoin:round;stroke-miterlimit:10;stroke-opacity:1;stroke-dasharray:none"
       id="path892"
       inkscape:connector-curvature="0"
       sodipodi:nodetypes="ccccccccccccccccccccccccccccc" /></g></svg>